<svg width="67" height="90" viewBox="0 0 67 90" fill="none" xmlns="http://www.w3.org/2000/svg">
<path fill-rule="evenodd" clip-rule="evenodd" d="M44.4025 40.186C44.7857 40.186 45.0963 39.8768 45.0963 39.4953C45.0963 39.1139 44.7857 38.8046 44.4025 38.8046C44.0193 38.8046 43.7087 39.1139 43.7087 39.4953C43.7087 39.8768 44.0193 40.186 44.4025 40.186Z" fill="#261F1F"/>
<path fill-rule="evenodd" clip-rule="evenodd" d="M22.4364 67.0228C22.3821 67.0228 22.3301 67.0445 22.2921 67.0831C22.2542 67.1217 22.2334 67.1739 22.2345 67.2279C22.2334 67.2815 22.2543 67.3333 22.2924 67.3713C22.3305 67.4092 22.3825 67.43 22.4364 67.4288C22.4906 67.43 22.543 67.4093 22.5818 67.3715C22.6206 67.3337 22.6424 67.2819 22.6424 67.2279C22.6424 67.1146 22.5501 67.0228 22.4364 67.0228Z" fill="#261F1F"/>
<path fill-rule="evenodd" clip-rule="evenodd" d="M31.0353 67.4288C31.1467 67.4288 31.2371 67.3389 31.2371 67.2279C31.2371 67.1123 31.143 67.0186 31.0269 67.0186C30.9107 67.0186 30.8166 67.1123 30.8166 67.2279C30.8166 67.2819 30.8384 67.3337 30.8772 67.3715C30.916 67.4093 30.9684 67.43 31.0227 67.4288" fill="#261F1F"/>
<path d="M10.3348 60.9153L12.0167 61.8698C11.9843 62.0901 11.9688 62.3126 11.9705 62.5353C11.9705 64.7372 13.2319 66.4284 15.7548 66.9474C15.9567 66.9893 16.087 67.027 16.1753 67.0563L15.7548 71.1377V71.1795C15.8525 72.0622 16.6016 72.7303 17.4935 72.7303C18.3855 72.7303 19.1346 72.0622 19.2323 71.1795V71.1377L18.8118 66.8847H18.7066V66.5916C18.6991 66.1496 18.509 65.7302 18.181 65.4321C18.5653 65.4433 18.9456 65.3523 19.2827 65.1684C19.776 64.8513 20.1363 64.3662 20.2961 63.8037L20.418 63.3349L21.5996 62.6567V62.9498C21.5938 63.6091 21.8526 64.2435 22.3186 64.7121V65.8674C21.769 66.0036 21.2628 66.2757 20.8469 66.6586L20.5231 66.9474L20.6199 67.5084L20.6661 67.6926C20.8427 68.2158 21.6753 68.6512 22.5036 68.6512C22.7661 68.6498 23.0274 68.616 23.2815 68.5507C23.4559 68.7793 23.6093 69.0231 23.7399 69.2791C23.9013 69.5839 24.1213 69.8541 24.3874 70.0744C23.9759 70.5071 23.7691 71.0938 23.8188 71.6876C23.8686 72.2814 24.1702 72.8259 24.6481 73.1847C24.4207 73.5103 24.299 73.8974 24.2991 74.294C24.2875 74.9359 24.5784 75.5463 25.0854 75.9433C25.0092 76.1222 24.9678 76.314 24.9635 76.5084C24.97 77.0533 25.2471 77.5596 25.7035 77.8605C25.7035 78.4384 26.1742 78.907 26.7547 78.907C27.3353 78.907 27.8059 78.4384 27.8059 77.8605C28.2601 77.5571 28.5377 77.0527 28.5502 76.5084C28.5452 76.3145 28.5053 76.1231 28.4325 75.9433C28.9384 75.5459 29.2279 74.9354 29.2146 74.294C29.2169 73.8971 29.0949 73.5093 28.8656 73.1847C29.344 72.8265 29.6465 72.2824 29.6971 71.6885C29.7476 71.0947 29.5415 70.5076 29.1305 70.0744C29.3907 69.8527 29.6049 69.5825 29.7612 69.2791C29.8918 69.0231 30.0452 68.7793 30.2195 68.5507C30.4724 68.6152 30.7322 68.6489 30.9932 68.6512C31.8342 68.6512 32.6752 68.2326 32.8349 67.6926C32.8349 67.6549 32.8812 67.5084 32.8812 67.5084L32.9779 66.96L32.6583 66.6586C32.3033 66.3413 31.8889 66.0967 31.4389 65.9386V64.8837C32.038 64.4205 32.3849 63.7049 32.3766 62.9498V62.2088H29.8537C29.091 61.3849 28.0169 60.9161 26.8914 60.9161C25.7659 60.9161 24.6918 61.3849 23.9291 62.2088H22.3733L24.6187 60.9153C24.7144 60.8606 24.7482 60.7393 24.6944 60.6433C24.6377 60.5474 24.5146 60.5139 24.4168 60.5679L20.212 62.9916L19.8672 62.8995C19.996 62.6364 20.0785 62.3532 20.1111 62.0623L20.1531 61.5726L23.21 59.0233C23.2707 58.9787 23.3014 58.9042 23.2895 58.83C23.2777 58.7559 23.2253 58.6945 23.1538 58.6709C23.0822 58.6472 23.0033 58.6653 22.9493 58.7177L19.8714 61.2879H19.7284C19.761 61.1951 19.7863 61.0999 19.8041 61.0033L20.8301 59.7935L20.4811 59.467L20.2709 59.2828L21.6332 57.667C21.703 57.5823 21.6918 57.4575 21.608 57.3865C21.5215 57.3165 21.3949 57.3277 21.3221 57.4116L19.9555 59.0233C19.0207 58.3795 17.909 58.0388 16.7724 58.0479C16.0147 58.0427 15.2647 58.1997 14.5733 58.5084L13.6356 57.3949C13.5636 57.3093 13.4356 57.2981 13.3497 57.3698C13.2637 57.4414 13.2524 57.5689 13.3244 57.6544L14.2033 58.6967C13.7808 58.937 13.3991 59.2422 13.0721 59.6009L11.9957 58.7009C11.9093 58.631 11.7826 58.6421 11.7098 58.726C11.6751 58.7663 11.6583 58.8188 11.663 58.8716C11.6678 58.9244 11.6937 58.973 11.735 59.0065L12.8157 59.9149C12.4676 60.3778 12.2172 60.9061 12.0798 61.4679L10.5366 60.5805C10.4409 60.5316 10.3236 60.5659 10.2697 60.6586C10.2159 60.7513 10.2445 60.8697 10.3348 60.9279V60.9153ZM24.4463 68.94C24.255 68.5473 24.0087 68.1837 23.7146 67.86C23.4455 67.5963 23.0965 67.8851 22.4952 67.8851C22.0873 67.9085 21.689 67.756 21.402 67.4665L21.3641 67.2614C21.7422 66.9033 22.2285 66.6796 22.7475 66.6251C23.4371 66.6251 24.358 66.9726 25.1695 68.5926C25.35 68.8899 25.6189 69.1239 25.939 69.2623C25.651 69.3861 25.3703 69.5259 25.098 69.6809C24.8289 69.4915 24.6096 69.2402 24.4589 68.9484L24.4463 68.94ZM24.8794 66.7967H25.3335C25.3335 67.0186 25.3882 67.634 25.3882 67.634C25.2425 67.3412 25.0723 67.0611 24.8794 66.7967ZM27.5074 75.6419C27.27 75.7476 27.0503 75.8887 26.8557 76.0605C26.7507 76.1818 26.7512 76.3614 26.8567 76.4822C26.9623 76.603 27.1409 76.6284 27.2761 76.5419C27.4013 76.4312 27.5432 76.3408 27.6966 76.274C27.7271 76.3615 27.7427 76.4534 27.7429 76.546C27.7199 76.9545 27.4255 77.2972 27.0238 77.3833V77.8019C27.0238 77.9498 26.9034 78.0698 26.7547 78.0698C26.6054 78.0698 26.4837 77.9505 26.4814 77.8019V77.3833C26.0797 77.2972 25.7854 76.9545 25.7624 76.546C25.7651 76.3651 25.8143 76.1878 25.9054 76.0312C26.2291 75.5288 26.5907 75.307 27.3098 74.8214C27.3348 74.808 27.3587 74.7926 27.3813 74.7754C27.3813 74.7754 27.4065 74.7753 27.4149 74.7419C27.5217 74.6475 27.5816 74.5114 27.5789 74.3693C27.5616 74.2125 27.4774 74.0706 27.3476 73.98L27.5284 73.8879C27.7261 73.7916 27.9153 73.6995 28.0919 73.5991C28.2789 73.8125 28.3819 74.0861 28.382 74.3693C28.3715 74.9559 28.0085 75.4789 27.4612 75.6963L27.5074 75.6419ZM27.5621 73.1512L27.2425 73.3144C26.8848 73.4714 26.5415 73.6591 26.2165 73.8754L26.1492 73.9256L26.1198 73.9465C25.9729 74.0394 25.8757 74.1931 25.8549 74.3651C25.8603 74.5832 25.9912 74.7787 26.1913 74.8674C25.9863 75.0102 25.7949 75.1714 25.6194 75.3488C25.2596 75.1298 25.0522 74.7296 25.0812 74.3107C25.0873 73.8882 25.2989 73.4949 25.6489 73.2558H25.6741C26.0507 72.9965 26.4472 72.7669 26.8599 72.5693L27.2593 72.3558C27.7261 72.113 28.1003 71.887 28.1003 71.5647C28.1003 71.2423 27.8816 71.0288 27.5452 70.8405C27.8312 70.7191 28.1129 70.5935 28.3862 70.4553C28.7223 70.7263 28.917 71.1341 28.916 71.5647C28.916 72.2972 28.2559 72.7493 27.6083 73.0967L27.5621 73.1512ZM26.4057 71.5061C26.4057 71.3095 26.5658 71.1502 26.7631 71.1502C26.9605 71.1502 27.1206 71.3095 27.1206 71.5061C27.1206 71.7026 26.9605 71.8619 26.7631 71.8619C26.5658 71.8619 26.4057 71.7026 26.4057 71.5061ZM32.1243 67.2405L32.0907 67.4456C31.8005 67.7355 31.3995 67.8878 30.989 67.8642C30.3919 67.8642 30.0429 67.5754 29.7738 67.8391C29.4812 68.1638 29.235 68.5273 29.0422 68.9191C28.8489 69.2795 28.5574 69.5784 28.2012 69.7814C27.8196 69.9865 27.4265 70.1696 27.0238 70.3298C26.7547 70.4428 26.4856 70.5558 26.2291 70.6772C25.7456 70.9033 25.3882 71.146 25.3882 71.5479C25.3882 71.8284 25.6657 72.0461 26.0525 72.2595C25.7943 72.397 25.5469 72.5538 25.3125 72.7284C24.8888 72.4788 24.6165 72.0369 24.585 71.5479C24.6022 70.9752 24.933 70.4578 25.447 70.2C25.8478 69.9851 26.2621 69.7963 26.6875 69.6349C27.0686 69.4959 27.436 69.3221 27.7849 69.1158C28.0037 68.9887 28.1839 68.805 28.3063 68.5842C29.1221 66.9642 30.0387 66.6 30.7241 66.6167C31.2448 66.6694 31.7331 66.8933 32.1117 67.253L32.1243 67.2405ZM26.0693 66.7716H27.3897L27.3308 68.6512C27.0452 68.8023 26.7503 68.9351 26.4478 69.0488L26.1871 69.1535L26.0693 66.7716ZM28.0709 67.6088C28.0709 67.6088 28.1465 66.9809 28.155 66.7716H28.6091C28.4088 67.0368 28.2289 67.3167 28.0709 67.6088ZM22.2345 62.8493H24.6523C24.8845 62.8493 25.0728 63.0367 25.0728 63.2679V63.8498H25.6489V63.2679C25.6372 62.8604 25.3722 62.5031 24.9845 62.3721L24.8037 62.3051L24.9635 62.1963C26.1397 61.3776 27.7105 61.4012 28.8614 62.2549L28.9917 62.3512L28.8445 62.4265C28.5287 62.5888 28.3271 62.9099 28.3189 63.2637V63.8456H28.8614V63.2637C28.8614 63.0325 29.0496 62.8451 29.2819 62.8451H31.6996V62.9456C31.6988 63.1489 31.6662 63.3509 31.6029 63.5442H29.963V63.8121H31.5104C31.288 64.306 30.7926 64.6216 30.249 64.6158H29.6098C29.6098 64.7372 29.6098 65.0344 29.6098 65.1558H30.2448H30.5097H30.7578V66.1061H22.9956V65.1558H23.4623H23.7146H24.3496C24.3496 65.026 24.3496 64.7372 24.3496 64.6158H23.7146C23.1707 64.6227 22.6748 64.3067 22.4532 63.8121H23.9669V63.5442H22.3312C22.27 63.3504 22.2374 63.1487 22.2345 62.9456V62.8493ZM18.4754 71.1628C18.379 71.6227 17.9718 71.9522 17.4999 71.9522C17.028 71.9522 16.6208 71.6227 16.5243 71.1628L16.8859 67.6256H18.1138L18.4754 71.1628ZM18.9211 64.5865C18.5062 64.7847 18.0351 64.8335 17.5882 64.7246C17.7164 64.2756 18.0011 63.8868 18.3913 63.6279C18.8055 63.4273 19.2774 63.3784 19.7242 63.4898C19.595 63.9383 19.3105 64.3268 18.9211 64.5865ZM18.1895 62.2298C18.5648 61.9604 19.0229 61.8301 19.4845 61.8614C19.4331 62.3174 19.2252 62.7418 18.8959 63.0628C18.5211 63.3297 18.0647 63.4585 17.605 63.427C17.6555 62.9728 17.862 62.5499 18.1895 62.2298ZM18.0339 60.8149C18.3326 60.512 18.7282 60.3224 19.1524 60.2791C19.2136 60.7006 19.0917 61.1281 18.8173 61.4548C18.5429 61.7815 18.1418 61.9765 17.7143 61.9912C17.6846 61.5726 17.802 61.1567 18.0465 60.8149H18.0339ZM16.785 58.7972C17.9605 58.7851 19.0978 59.2123 19.9723 59.9944L19.8209 60.1744C19.1834 59.8035 18.4569 59.6112 17.7185 59.6177C15.7128 59.6177 14.3883 60.9698 14.3883 62.64C14.3534 64.0739 15.375 65.3185 16.7934 65.5702C17.7564 65.7963 17.933 66.3195 17.933 66.5958V66.8888H17.092C17.0457 66.5707 16.7556 66.374 15.9314 66.2065C13.8795 65.7879 12.7358 64.44 12.7358 62.5395C12.7358 60.4758 14.3883 58.8014 16.7976 58.8014L16.785 58.7972ZM16.7976 62.234C17.1272 62.5531 17.3353 62.9763 17.3863 63.4312C16.9253 63.4626 16.4676 63.3339 16.0912 63.067C15.7639 62.7445 15.5563 62.3209 15.5026 61.8656C15.9642 61.8343 16.4223 61.9646 16.7976 62.234ZM15.8011 60.2791C16.2213 60.3235 16.6126 60.5131 16.907 60.8149C17.1541 61.1558 17.2745 61.5716 17.2476 61.9912C16.8263 61.9463 16.4338 61.7568 16.1375 61.4554C15.8928 61.1134 15.774 60.698 15.8011 60.2791ZM16.5664 63.6279C16.9486 63.8848 17.2284 64.267 17.3569 64.7079C16.9085 64.8167 16.4361 64.7679 16.0197 64.5698C15.6411 64.3091 15.3625 63.9284 15.2292 63.4898C15.6774 63.3785 16.1507 63.4274 16.5664 63.6279Z" fill="#261F1F"/>
<path d="M53.2495 65.5535L51.8493 62.4558C52.5462 62.3775 53.0893 61.818 53.144 61.1219C53.1987 60.4258 52.7497 59.789 52.0735 59.6037C51.3973 59.4185 50.6841 59.7369 50.3734 60.3628C48.5275 60.434 47.0389 60.1828 45.9583 59.5967C46 59.4524 46.0227 59.3032 46.0256 59.153C46.0256 58.1728 45.2274 57.3781 44.2427 57.3781C43.2581 57.3781 42.4599 58.1728 42.4599 59.153C42.4637 59.3029 42.4849 59.4517 42.5229 59.5967C41.4423 60.1828 39.9622 60.434 38.1162 60.3628C37.8056 59.7383 37.0941 59.4203 36.4188 59.6042C35.7436 59.7881 35.2938 60.4224 35.3457 61.1174C35.3976 61.8124 35.9368 62.3734 36.6319 62.4558L35.2359 65.5535H34.5884V66.2819C34.5907 67.6865 35.7339 68.8247 37.1449 68.827C37.6409 68.8234 38.1255 68.6781 38.5409 68.4084L37.0482 70.6521V70.6772L36.8674 71.7823L41.6693 72.7409C41.6105 72.9879 42.0898 73.2935 42.38 73.373C42.6315 73.434 42.8957 73.4164 43.1368 73.3228L43.2714 75.1856V75.1353C43.3055 75.6572 43.7406 76.063 44.2658 76.063C44.7911 76.063 45.2262 75.6572 45.2603 75.1353L45.3486 73.8335L48.0859 74.7126L50.4449 68.94V68.6051C50.7381 68.7205 51.0504 68.7801 51.3657 68.7809C52.7784 68.7809 53.9242 67.6421 53.9265 66.2358V65.5535H53.2495ZM52.6188 65.5535H50.037L51.2985 62.7154L52.6188 65.5535ZM49.2549 67.7554C49.031 67.7378 48.8089 67.7028 48.5905 67.6507C48.1748 67.5391 47.7859 67.3456 47.4468 67.0814C47.0967 66.8077 46.6949 66.607 46.2652 66.4912C46.1271 66.4608 45.9862 66.444 45.8448 66.4409L46.1265 62.4684H50.8023L49.4105 65.5535H48.7755V66.2819C48.7766 66.8115 48.9459 67.3272 49.2591 67.7554H49.2549ZM37.1449 62.7321L38.4064 65.5702H35.8666L37.1449 62.7321ZM39.0581 65.5702L37.6663 62.4851H42.3337L42.5944 66.1019C41.9565 66.1401 41.323 65.9743 40.7863 65.6288L40.5046 65.4237L40.3112 65.7167L39.6468 66.713C39.6742 66.5751 39.6896 66.435 39.6931 66.2944V65.5535L39.0581 65.5702ZM37.1449 68.1195C36.658 68.1173 36.1919 67.9223 35.8495 67.5776C35.5072 67.2328 35.3167 66.7666 35.32 66.2819H38.9782C38.9759 67.2882 38.1558 68.1028 37.1449 68.1028V68.1195ZM42.6112 72.3433C42.464 71.8978 42.1225 71.5424 41.682 71.3763C41.2229 71.277 40.7488 71.267 40.2859 71.347C39.7186 71.4297 39.1413 71.4155 38.5788 71.3051C38.2962 71.2289 38.0258 71.1134 37.7757 70.9619C38.0742 70.5056 40.4247 66.7758 40.719 66.3572C41.0053 66.5003 41.3073 66.6099 41.6189 66.6837C41.9567 66.759 42.3036 66.7857 42.6491 66.7633L43.0359 72.1214C42.8815 72.1709 42.7385 72.2506 42.6154 72.3558L42.6112 72.3433ZM44.516 75.1898C44.516 75.3354 44.3974 75.4535 44.2511 75.4535C44.1048 75.4535 43.9862 75.3354 43.9862 75.1898L43.0191 61.7567H36.8085C36.5088 61.7567 36.2387 61.5768 36.1244 61.301C36.0101 61.0252 36.0742 60.7079 36.2867 60.4976C36.4993 60.2872 36.8183 60.2252 37.0947 60.3405C37.3711 60.4559 37.5503 60.7258 37.5486 61.0242C37.5507 61.0409 37.5507 61.0577 37.5486 61.0744C38.8899 61.1665 41.6021 61.2419 43.469 59.873C43.2916 59.678 43.1927 59.4246 43.1915 59.1614C43.1901 58.6903 43.5039 58.276 43.9591 58.1475C44.4144 58.0191 44.8998 58.2079 45.147 58.6096C45.3941 59.0114 45.3424 59.5277 45.0206 59.873C46.8918 61.2419 49.6123 61.1665 50.9495 61.0744C50.9495 61.0744 50.9495 61.0409 50.9495 61.0242C50.9477 60.7258 51.127 60.4559 51.4034 60.3405C51.6798 60.2252 51.9988 60.2872 52.2113 60.4976C52.4238 60.7079 52.4879 61.0252 52.3736 61.301C52.2593 61.5768 51.9892 61.7567 51.6895 61.7567H45.4663L44.516 75.1898ZM47.4594 73.5698C47.2311 73.5849 47.0018 73.568 46.7782 73.5195C46.4587 73.44 45.9835 73.013 45.4243 72.7493L45.8448 67.1149C45.9466 67.1181 46.048 67.1307 46.1475 67.1526C46.4958 67.2527 46.8214 67.419 47.1062 67.6423C47.5114 67.9555 47.9764 68.1834 48.4728 68.3121C48.8655 68.4104 49.2645 68.4817 49.667 68.5256C49.3895 69.254 47.4636 73.5698 47.4636 73.5698H47.4594ZM51.3699 68.1279C50.3591 68.1279 49.5389 67.3133 49.5366 66.307H53.2033C53.2009 67.3133 52.3808 68.1279 51.3699 68.1279Z" fill="#261F1F"/>
<path d="M13.4968 46.4316C13.4968 49.2154 15.6497 50.4837 17.4746 51.1367C17.5209 51.4108 17.6853 51.6509 17.9245 51.794C17.8147 51.8769 17.7243 51.9826 17.6596 52.1037C17.5255 52.3343 17.4906 52.609 17.5629 52.8656C17.6272 53.0849 17.7653 53.2755 17.954 53.4056C17.4872 53.7237 16.8018 54.1967 16.8018 54.9628V55.5405H22.5709V54.9628C22.5709 54.067 21.6248 53.6107 21.2001 53.2507C21.1202 53.1837 21.0151 53.0916 20.9478 53.0247V52.966C20.9478 52.966 21.936 52.7274 21.936 51.9321C21.9279 51.5806 21.7431 51.2567 21.444 51.0698C21.5537 50.989 21.6454 50.8863 21.7131 50.7684C21.8438 50.535 21.877 50.2599 21.8056 50.0023C21.7629 49.8483 21.6868 49.7054 21.5828 49.5837C21.7594 49.4833 21.9444 49.3786 22.0789 49.2823C22.8905 48.7005 24.009 47.9051 24.009 46.4023V44.8326H22.2135L22.306 44.3302C22.5094 44.2163 22.7341 44.145 22.9662 44.1209C23.2185 44.1209 23.4749 44.3344 23.7399 44.3344C24.0048 44.3344 24.072 44.1963 24.072 44.1293C24.072 44.0623 23.9249 44.0414 23.7693 44.0414C23.5506 44.0414 23.2983 43.7233 22.9283 43.7233C22.7316 43.7393 22.5371 43.7757 22.348 43.8321C22.0499 43.547 21.7324 43.2826 21.3978 43.0409H24.8752V55.5405H28.6133V43.0409H32.5028V39.3195H28.6217V34.8656H24.8836V39.3195H20.9983V42.8442C20.7029 42.7186 20.3891 42.6408 20.069 42.614C19.6714 42.6203 19.2749 42.6581 18.8833 42.727C18.3082 42.626 17.7262 42.5687 17.1424 42.5553C15.0636 42.6304 13.4354 44.3617 13.4968 46.4316ZM21.7636 40.0814H25.6489V35.6274H27.8564V40.0814H31.7333V42.2791H27.8564V54.9544H25.6489V42.2791H21.7636V40.0814ZM21.7636 54.854V54.9502H17.6092V54.8372C17.6092 54.4186 18.6225 53.9079 19.0472 53.4767L20.1447 53.1754C20.1783 53.6484 21.7636 54.3098 21.7636 54.8498V54.854ZM18.3534 50.5591L20.7418 49.8935C20.9291 49.8947 21.0931 50.0193 21.1438 50.1988C21.1945 50.3784 21.1197 50.5697 20.9604 50.6679L18.5679 51.3335C18.3813 51.3304 18.2191 51.2053 18.1695 51.0262C18.1199 50.8471 18.1948 50.6569 18.3534 50.5591ZM21.0235 52.3256L18.6352 52.987C18.4214 53.0395 18.2032 52.919 18.1348 52.7107C18.0845 52.4993 18.2051 52.2848 18.4123 52.2167L20.8049 51.5512C20.9922 51.5524 21.1561 51.6769 21.2068 51.8565C21.2575 52.036 21.1828 52.2273 21.0235 52.3256ZM23.2058 45.6279V46.4274C23.2058 47.52 22.3649 48.1019 21.6164 48.6544C21.3095 48.8721 20.6703 49.2907 20.6703 49.2907L19.0977 49.7093C18.8412 49.2907 18.2189 48.9977 17.7311 48.646C16.9869 48.1144 16.1417 47.5116 16.1417 46.4191V45.6279H23.2058ZM17.1298 43.3507C17.6735 43.3366 18.2167 43.3958 18.7445 43.5265C19.1784 43.456 19.6168 43.4168 20.0564 43.4093C20.7712 43.4093 21.5029 44.1293 21.5029 44.1293L21.4398 44.5144C21.4398 44.5144 21.095 44.933 20.0942 44.933C19.5014 44.933 19.0052 44.5479 18.6015 44.4181C18.1207 44.2789 17.6222 44.2098 17.1214 44.213C16.562 44.2432 16.0377 44.4944 15.6651 44.911C15.2925 45.3275 15.1023 45.8749 15.1367 46.4316C15.1367 47.6874 15.8642 48.307 16.6042 48.8554C17.4452 49.4916 18.0465 49.7512 18.2862 49.9521L18.1726 49.9856C17.961 50.0464 17.775 50.1743 17.6428 50.3498C16.0912 49.7721 14.2789 48.7298 14.2789 46.4316C14.2402 45.648 14.5187 44.8816 15.0522 44.3041C15.5857 43.7265 16.3296 43.3861 17.1172 43.3591L17.1298 43.3507Z" fill="#261F1F"/>
<path d="M54.0779 46.8837C54.0779 44.9916 52.7365 43.7191 50.7434 43.7191H48.2205L46.959 40.567C47.1014 40.2363 47.1743 39.8802 47.1735 39.5205C47.1711 38.4072 46.4958 37.4049 45.4622 36.9802C44.4285 36.5556 43.2397 36.7921 42.4494 37.5796C41.659 38.3672 41.4226 39.5509 41.8502 40.5795L40.6139 43.7191H38.0658C36.0727 43.7191 34.7313 44.9749 34.7313 46.8837C34.7383 48.3917 35.9707 49.6093 37.4855 49.6047C37.7839 49.6062 38.0796 49.5493 38.3559 49.4372L37.229 52.3005L36.2535 54.7702C36.0096 55.4023 36.4259 55.5781 36.4259 55.5781L36.9935 55.8712C37.3426 56.0553 37.6285 55.8084 37.8093 55.4902L38.4526 54.3684V54.653H50.3566V54.3558L51.0083 55.4902C51.1891 55.8084 51.4751 56.0553 51.8241 55.8712L52.3875 55.5781C52.3875 55.5781 52.808 55.4023 52.5641 54.7702L51.5886 52.3005L50.4575 49.4205C50.725 49.5269 51.0103 49.5823 51.2985 49.5837C52.8123 49.5861 54.0434 48.3699 54.0526 46.8628L54.0779 46.8837ZM44.3815 37.5488C45.1779 37.5301 45.9065 37.9933 46.2244 38.7206C46.5423 39.4478 46.3863 40.2943 45.8297 40.8618C45.2731 41.4293 44.4268 41.6048 43.6889 41.3057C42.9511 41.0067 42.4685 40.2927 42.4683 39.4995C42.4683 38.4238 43.343 37.5511 44.4235 37.5488H44.3815ZM37.4855 48.78C36.4254 48.7847 35.559 47.939 35.5429 46.8837C35.5429 45.427 36.5058 44.5228 38.0658 44.5228H40.2944L39.5249 46.4651C39.2534 45.7677 38.5685 45.3177 37.8177 45.3433C37.4337 45.325 37.0587 45.4634 36.7794 45.7264C36.5001 45.9895 36.3406 46.3545 36.3376 46.7372C36.3232 47.0745 36.4514 47.4023 36.6912 47.641C36.931 47.8797 37.2603 48.0074 37.599 47.993C37.7785 47.9409 37.9018 47.7772 37.9018 47.5912C37.9018 47.4051 37.7785 47.2414 37.599 47.1893C37.4727 47.2027 37.3471 47.1584 37.2573 47.069C37.1675 46.9796 37.1231 46.8546 37.1365 46.7288C37.1427 46.5594 37.2188 46.3999 37.347 46.2882C37.4751 46.1765 37.6439 46.1223 37.8135 46.1386C38.4863 46.1386 38.8899 46.5991 38.8899 47.3693C38.9031 47.7425 38.7596 48.1043 38.494 48.3679C38.2284 48.6315 37.8645 48.7733 37.4897 48.7591L37.4855 48.78ZM37.1659 55.08L36.9641 54.9753C36.9641 54.9753 40.6938 45.5065 42.3547 41.3037C42.608 41.5907 42.9188 41.8217 43.2672 41.9819L43.9862 43.2377L37.1659 55.08ZM44.1208 44.4809H44.7052L46.0802 46.8712H42.7458L44.1208 44.4809ZM40.6307 53.8995H39.26V52.9242L40.6265 50.5507L40.6307 53.8995ZM47.3207 53.8995H45.9583V48.8763C45.9583 48.6382 45.7644 48.4451 45.5252 48.4451C45.286 48.4451 45.0921 48.6382 45.0921 48.8763V53.8995H43.7297V48.8763C43.7297 48.6358 43.5339 48.4409 43.2924 48.4409C43.0509 48.4409 42.8551 48.6358 42.8551 48.8763V53.8995H41.4885V49.0688L42.279 47.6916H46.5386L47.3165 49.0479L47.3207 53.8995ZM49.5492 53.8995H48.1869V50.5507L49.5492 52.9242V53.8995ZM51.8409 54.9753L51.6433 55.08L44.2427 42.2372C44.2974 42.2372 44.3478 42.2372 44.4025 42.2372C45.1869 42.2347 45.9331 41.8998 46.4545 41.3163C48.1112 45.5233 51.8451 54.9795 51.8367 54.9795L51.8409 54.9753ZM49.9235 47.3735C49.9235 46.6033 50.344 46.1428 50.9957 46.1428C51.1655 46.1253 51.335 46.1789 51.4635 46.2909C51.592 46.4029 51.6678 46.5631 51.6727 46.733C51.6859 46.858 51.642 46.9822 51.5532 47.0714C51.4644 47.1607 51.34 47.2055 51.2144 47.1935C51.035 47.2456 50.9116 47.4093 50.9116 47.5953C50.9116 47.7814 51.035 47.9451 51.2144 47.9972C51.5531 48.0116 51.8824 47.8839 52.1222 47.6452C52.362 47.4065 52.4903 47.0787 52.4758 46.7414C52.4729 46.3579 52.3127 45.9922 52.0325 45.729C51.7523 45.4659 51.3762 45.328 50.9915 45.3474C50.2512 45.3288 49.5786 45.7741 49.3096 46.4609L48.5317 44.4935H50.756C52.3118 44.4935 53.2789 45.3977 53.2789 46.8544C53.272 47.9186 52.401 48.7763 51.3321 48.7716C50.9573 48.7858 50.5934 48.6441 50.3278 48.3805C50.0622 48.1168 49.9188 47.755 49.9319 47.3819L49.9235 47.3735Z" fill="#261F1F"/>
<path fill-rule="evenodd" clip-rule="evenodd" d="M20.2036 44.2549C20.3164 44.2527 20.4074 44.1621 20.4096 44.0498C20.4096 43.9365 20.3174 43.8447 20.2036 43.8447C20.1493 43.8446 20.0973 43.8664 20.0593 43.905C20.0214 43.9436 20.0006 43.9958 20.0017 44.0498C20.0017 44.1614 20.0914 44.2526 20.2036 44.2549Z" fill="#261F1F"/>
<path d="M43.6498 20.5326C43.6896 20.8318 43.827 21.1098 44.0409 21.3237C44.2912 21.4808 44.5632 21.6006 44.8482 21.6795C44.8482 21.5498 44.8188 21.4284 44.8188 21.2986C44.8188 19.846 46.2232 18.9544 46.2232 18.9544C46.2582 18.8746 46.2863 18.792 46.3073 18.7074L46.1391 17.7488C46.1391 17.6149 46.1391 17.5605 45.9541 17.5981L45.1131 17.7614C44.6266 18.3383 44.0781 18.8605 43.4774 19.3186C43.613 19.7067 43.6632 20.1193 43.6246 20.5284L43.6498 20.5326ZM44.1502 19.4819C44.6088 19.1184 45.0313 18.7119 45.4117 18.2679L45.5126 18.2344L45.6892 18.2009V18.2679C45.7144 18.3893 45.7354 18.5149 45.7481 18.6153V18.653L45.7144 18.6781C45.0356 19.1504 44.5504 19.8504 44.3478 20.6498L44.3016 20.8633L44.2133 20.6623L44.188 20.5995C44.188 20.5535 44.167 20.2605 44.167 20.2605C44.167 20.2605 44.167 20.1767 44.167 20.1349C44.1654 19.9391 44.1429 19.744 44.0998 19.553V19.5112L44.1502 19.4819Z" fill="#261F1F"/>
<path fill-rule="evenodd" clip-rule="evenodd" d="M46.6731 17.054C46.7465 17.5331 46.7774 18.0178 46.7656 18.5023C47.0209 18.2881 47.1934 17.9921 47.2534 17.6651C47.2385 17.2162 47.1765 16.77 47.0684 16.334C47.0263 16.267 46.5259 15.6474 46.2779 15.6474C46.1643 15.6474 46.013 15.8065 45.9204 16.066C45.7855 16.3209 45.6367 16.5682 45.4747 16.807V16.8865C45.8406 16.8865 46.6058 16.8865 46.6731 17.0581" fill="#261F1F"/>
<path fill-rule="evenodd" clip-rule="evenodd" d="M15.1662 23.5549L15.8137 24.346C16.1612 24.0694 16.5279 23.8176 16.9112 23.5926C16.9066 23.541 16.9066 23.4892 16.9112 23.4377C16.9102 23.3121 16.9315 23.1874 16.9742 23.0693C17.0695 22.797 17.2733 22.5759 17.5377 22.4581C17.6767 22.3914 17.8291 22.3571 17.9834 22.3577C18.3059 22.3531 18.6139 22.491 18.8244 22.7344C19.2076 22.6016 19.5996 22.4953 19.9975 22.4163L19.7621 21.4158C18.0718 21.7304 16.4891 22.4664 15.162 23.5549" fill="#261F1F"/>
<path fill-rule="evenodd" clip-rule="evenodd" d="M13.6188 21.5833L14.2453 22.3995C14.7497 21.9926 15.2885 21.6298 15.8558 21.3153C15.849 21.2724 15.849 21.2286 15.8558 21.1856C15.8558 20.7668 16.098 20.3855 16.4781 20.206C16.6141 20.1378 16.7632 20.0992 16.9154 20.093C17.2202 20.0942 17.5103 20.2234 17.7143 20.4488C18.2892 20.2409 18.8797 20.0785 19.4803 19.9633C19.4467 19.8377 19.2533 18.9586 19.2533 18.9586C17.1831 19.3399 15.2442 20.2387 13.6188 21.5707" fill="#261F1F"/>
<path fill-rule="evenodd" clip-rule="evenodd" d="M14.7961 19.0381C14.792 19.0034 14.792 18.9683 14.7961 18.9335C14.799 18.5144 15.0424 18.1338 15.4227 17.954C15.841 17.7585 16.3382 17.8531 16.6547 18.1884C17.3901 17.9058 18.1483 17.686 18.9211 17.5312C18.816 17.1126 18.7487 16.8698 18.7066 16.7358C18.6379 16.7347 18.5691 16.7375 18.5006 16.7442C18.1536 16.7577 17.8093 16.8111 17.4746 16.9033L17.3148 16.9451C16.9722 17.0493 16.6174 17.1084 16.2594 17.1209C15.7672 17.1441 15.291 16.944 14.9643 16.5767C14.8088 16.4009 14.7583 16.3842 14.7457 16.3842C14.7075 16.393 14.6707 16.4071 14.6364 16.426C14.527 16.4805 14.527 16.4805 14.527 16.5684C14.5221 16.6353 14.5221 16.7024 14.527 16.7693C14.5402 16.851 14.5472 16.9335 14.548 17.0163C14.548 17.9456 13.7071 18.5233 13.2866 18.7995L13.152 18.8958C12.8034 19.1181 12.4985 19.4018 12.2522 19.733C12.3279 19.8544 12.4709 20.0595 12.7273 20.4112C13.3705 19.8985 14.0586 19.4446 14.7835 19.0549" fill="#261F1F"/>
<path d="M37.5234 19.6744L38.7848 20.0177C38.9825 19.2551 39.4384 18.5838 40.0757 18.1172C39.6213 17.6013 39.2 17.0574 38.8143 16.4888C38.2634 16.7233 37.6916 16.9074 37.4435 17.0079C37.5701 17.5895 37.6307 18.1835 37.6243 18.7786C37.6258 19.0801 37.592 19.3808 37.5234 19.6744ZM38.6503 17.0498C38.9194 17.4349 39.1927 17.7781 39.4324 18.0628C39.003 18.4397 38.6774 18.9195 38.4863 19.4567L38.0658 19.3395C38.0908 19.1536 38.1034 18.9662 38.1036 18.7786C38.1006 18.2875 38.057 17.7975 37.9733 17.3135C38.2045 17.234 38.4316 17.146 38.6713 17.0498" fill="#261F1F"/>
<path d="M26.7884 18.0963C27.4259 18.5644 27.8818 19.2371 28.0793 20.0009C28.3316 19.934 28.895 19.7833 29.3407 19.6577C29.2721 19.364 29.2383 19.0634 29.2398 18.7619C29.2403 18.1664 29.3052 17.5728 29.4332 16.9912C29.1893 16.9074 28.6175 16.7065 28.0666 16.4721C27.6836 17.0413 27.2621 17.5839 26.8052 18.0963M28.9286 17.2967C28.8451 17.7808 28.8015 18.2708 28.7983 18.7619C28.7983 18.9481 28.811 19.1341 28.8361 19.3186L28.4156 19.44C28.2196 18.9042 27.8931 18.4252 27.4654 18.046C27.705 17.7614 27.9741 17.4181 28.2517 17.033C28.4871 17.1293 28.7142 17.2172 28.9455 17.2967" fill="#261F1F"/>
<path d="M27.4738 23.1907C28.6375 22.9951 29.7691 22.643 30.8376 22.1442C30.3443 21.673 29.936 21.1207 29.6309 20.5116C29.4122 20.5828 28.9917 20.6958 28.1928 20.9051C28.2167 21.7321 27.9638 22.5435 27.4738 23.2116M28.6343 21.2651L29.3954 21.06C29.5855 21.3974 29.808 21.7156 30.0597 22.0102C29.5138 22.2306 28.9515 22.4084 28.3778 22.5419C28.5361 22.1406 28.6283 21.7165 28.6511 21.286" fill="#261F1F"/>
<path d="M32.343 22.2321C32.6929 22.4719 33.0566 22.6914 33.432 22.8893C33.8124 22.6977 34.1778 22.478 34.5253 22.2321C34.0859 21.8845 33.7152 21.4587 33.432 20.9763C33.1509 21.4589 32.7815 21.8848 32.343 22.2321ZM33.432 21.7674C33.5372 21.8972 33.6507 22.027 33.7726 22.1526C33.6423 22.2321 33.5245 22.2991 33.432 22.3493C33.3353 22.2991 33.2176 22.2321 33.0914 22.1526C33.2117 22.0303 33.3254 21.9017 33.432 21.7674Z" fill="#261F1F"/>
<path d="M27.7261 15.3167C28.0853 14.7492 28.311 14.1081 28.3862 13.4414C28.3862 13.1233 28.1171 12.5372 27.6756 12.5372C27.2341 12.5372 26.7884 13.1819 26.7884 13.8684C26.8342 14.4782 27.1871 15.0233 27.7261 15.3167ZM27.6756 12.9977C27.8144 12.9977 27.9279 13.3284 27.9279 13.4414C27.8966 13.8516 27.776 14.2501 27.5747 14.6093C27.366 14.4192 27.2483 14.1499 27.2509 13.8684C27.2509 13.4205 27.5032 12.9977 27.6714 12.9977" fill="#261F1F"/>
<path d="M39.3903 23.1907C38.9048 22.5209 38.6563 21.7097 38.6839 20.8842C37.885 20.6749 37.4645 20.5619 37.25 20.4907C36.9481 21.1058 36.5428 21.665 36.0517 22.1442C37.1204 22.6426 38.2519 22.9946 39.4155 23.1907M37.4939 21.0391L38.255 21.2442C38.2798 21.6744 38.372 22.0981 38.5283 22.5C37.9548 22.3659 37.3925 22.1882 36.8464 21.9684C37.0991 21.6745 37.3217 21.3562 37.5107 21.0181" fill="#261F1F"/>
<path d="M31.1152 19.1637C31.1629 19.1497 31.2094 19.1315 31.2539 19.1093V19.0633C31.2494 18.8625 31.3888 18.6868 31.5861 18.6447C31.6237 18.638 31.6621 18.638 31.6996 18.6447C31.8976 18.6507 32.0684 18.785 32.1201 18.9753C32.1916 19.4599 31.8766 19.9176 31.3969 20.026L30.5223 20.2814C30.8052 20.8123 31.1827 21.2875 31.6366 21.6837C32.4986 21.0558 32.9359 20.3191 32.9359 19.4944C32.9359 18.3265 31.6744 17.7865 30.2784 17.3009C30.1885 17.7912 30.1435 18.2886 30.1438 18.787C30.142 19.0083 30.1674 19.229 30.2195 19.4442L31.1152 19.1637ZM32.5448 19.4316C32.5448 19.4316 32.6289 20.1935 31.6786 21.0265C31.529 20.8672 31.3886 20.6995 31.2581 20.5242C32.4229 20.2186 32.549 19.4316 32.549 19.4316H32.5448ZM30.6695 17.9037C31.1993 18.0753 31.7333 18.293 31.7333 18.293C31.373 18.2727 31.0317 18.4555 30.8503 18.766L30.6274 18.8288C30.6274 18.8037 30.6274 18.7828 30.6274 18.7619C30.6299 18.4821 30.6467 18.2027 30.6779 17.9247L30.6695 17.9037Z" fill="#261F1F"/>
<path d="M40.0799 13.8684C40.0799 13.1819 39.6594 12.5372 39.1885 12.5372C38.7175 12.5372 38.4779 13.1233 38.4779 13.4414C38.5531 14.1081 38.7788 14.7492 39.138 15.3167C39.678 15.0238 40.0325 14.4788 40.0799 13.8684ZM39.1885 12.9977C39.3609 12.9977 39.609 13.4163 39.609 13.8684C39.6115 14.1499 39.4938 14.4192 39.2852 14.6093C39.0844 14.2501 38.9653 13.8514 38.9362 13.4414C38.9362 13.3284 39.0497 12.9977 39.1843 12.9977" fill="#261F1F"/>
<path d="M35.2401 21.6586C35.6928 21.2613 36.0702 20.7863 36.3544 20.2563L35.4672 20.0009C34.9921 19.887 34.6823 19.4317 34.7524 18.9502C34.8053 18.7606 34.9753 18.6269 35.1728 18.6195C35.2118 18.6131 35.2516 18.6131 35.2906 18.6195C35.4879 18.6617 35.6273 18.8373 35.6228 19.0381C35.6228 19.0381 35.6228 19.0716 35.6228 19.0842C35.6658 19.1064 35.7109 19.1247 35.7573 19.1386L36.653 19.394C36.703 19.1784 36.7284 18.958 36.7286 18.7367C36.7252 18.2463 36.6759 17.7572 36.5815 17.2758C35.1771 17.7614 33.924 18.3014 33.924 19.4693C33.924 20.3065 34.3445 21.0307 35.2275 21.6586M36.1988 17.8912C36.23 18.1692 36.2468 18.4486 36.2493 18.7284C36.2513 18.7507 36.2513 18.7731 36.2493 18.7953L36.0306 18.7326C35.8489 18.4218 35.5084 18.2378 35.1476 18.2553C35.1476 18.2553 35.6816 18.0419 36.2072 17.8702M34.3277 19.3981C34.3277 19.3981 34.479 20.2186 35.6228 20.5116C35.4958 20.6883 35.3552 20.8548 35.2023 21.0098C34.252 20.1726 34.3361 19.4191 34.3361 19.4191" fill="#261F1F"/>
<path fill-rule="evenodd" clip-rule="evenodd" d="M50.592 22.7595L50.7686 21.353L52.1815 21.1102L50.878 20.4907L51.0672 19.0842L50.0748 20.1181L48.784 19.5279L48.7882 19.5363L49.4609 20.7544L48.4644 21.7884L49.894 21.5163L50.592 22.7595Z" fill="#261F1F"/>
<path d="M46.1223 20.5493C46.0139 20.7872 45.9594 21.0458 45.9625 21.307C45.9665 21.8866 46.2436 22.4306 46.711 22.7763L47.3585 23.2451C47.7643 23.488 48.1278 23.7948 48.435 24.1535L48.5317 24.2874H48.8176C49.2573 24.3158 49.6913 24.4017 50.1085 24.5428L50.8485 24.7312C51.0019 24.764 51.1584 24.7808 51.3153 24.7814C51.7592 24.785 52.1889 24.6255 52.5221 24.3335C52.716 24.1738 52.8724 23.9738 52.9804 23.7474C53.1122 23.4442 53.1712 23.1146 53.1528 22.7847V22.2572C53.1478 21.9564 53.176 21.656 53.2369 21.3614C53.2369 21.2986 53.2663 21.2358 53.2831 21.1688L53.3546 20.9888C53.5899 20.592 53.9444 20.2787 54.368 20.093L54.5488 19.9465L54.4395 19.2014L54.2208 19.1637C53.952 19.1148 53.6906 19.0318 53.4429 18.9167C53.2201 18.8121 52.3917 18.2888 52.3917 17.6065C52.3879 17.5605 52.3879 17.5143 52.3917 17.4684C52.4065 17.3925 52.4149 17.3154 52.4169 17.2381C52.4281 17.0159 52.2887 16.8137 52.0764 16.7442C51.9938 16.6984 51.9016 16.6726 51.8072 16.6688C51.6055 16.6921 51.4249 16.8043 51.3153 16.9744C51.1135 17.1967 50.8209 17.3154 50.5206 17.2967C50.2347 17.2816 49.952 17.2296 49.6796 17.1419C49.3876 17.0383 49.1179 16.8806 48.8849 16.6772L48.7125 16.5265L48.519 16.6521L48.2205 16.8279L48.0313 16.9367L48.0733 17.146C48.1232 17.3759 48.1514 17.61 48.1574 17.8451C48.1641 18.068 48.121 18.2896 48.0313 18.494L47.9346 18.674C47.9048 18.723 47.8725 18.7705 47.8379 18.8163C47.5865 19.1327 47.2938 19.4143 46.9675 19.6535C46.6178 19.8845 46.3293 20.1961 46.1265 20.5619M48.3845 18.9586C48.8554 18.2763 48.6284 17.2005 48.6284 17.2005H48.6536C48.9073 17.3978 49.1913 17.5533 49.4946 17.6609C49.8293 17.769 50.1773 17.831 50.529 17.8451C50.9876 17.855 51.4256 17.6562 51.7189 17.3051C51.757 17.2595 51.7992 17.2174 51.8451 17.1795C51.8653 17.2421 51.8653 17.3095 51.8451 17.3721C51.8393 17.4445 51.8393 17.5173 51.8451 17.5898C51.8451 18.5484 52.829 19.2098 53.2075 19.3856C53.4471 19.4969 53.698 19.5825 53.9559 19.6409V19.6744C53.4584 19.9108 53.0618 20.3159 52.8374 20.8172C52.3286 21.847 52.7323 23.04 52.4758 23.513C52.2515 23.9521 51.7975 24.2275 51.3027 24.2247C51.1825 24.2243 51.0628 24.2117 50.9452 24.187L50.2304 24.0028C49.77 23.8477 49.2904 23.7562 48.805 23.7307H48.7755C48.4431 23.3684 48.0626 23.0529 47.6444 22.793L47.0095 22.3367C46.6689 22.0688 46.2022 21.4284 46.589 20.767C46.9759 20.1056 47.7159 19.8712 48.3635 18.9377" fill="#261F1F"/>
<path fill-rule="evenodd" clip-rule="evenodd" d="M24.6187 22.0521C25.0139 22.0521 24.9635 21.6335 25.1148 21.4619C25.2662 21.2902 25.6993 21.3698 25.6993 20.9637C25.6993 20.5577 25.2788 20.6079 25.1148 20.4656C24.9509 20.3233 25.0392 19.8754 24.6187 19.8754C24.3622 19.8754 24.2234 20.0763 24.2234 20.3693V21.5581C24.2234 21.8428 24.358 22.0521 24.6187 22.0521Z" fill="#261F1F"/>
<path fill-rule="evenodd" clip-rule="evenodd" d="M11.4995 26.2591C11.2767 26.0749 11.0328 26.0456 10.8688 26.2591C10.6165 26.5647 10.9865 26.8033 11.0034 27.0167C11.0202 27.2302 10.7048 27.5233 11.0034 27.7828C11.3019 28.0423 11.5752 27.6572 11.7728 27.6279C11.9705 27.5986 12.2732 27.946 12.5423 27.6279C12.7063 27.427 12.639 27.2093 12.412 27.0084L11.4995 26.2591Z" fill="#261F1F"/>
<path d="M60.9065 37.7079C61.9288 37.4626 62.6498 36.5529 62.6516 35.506C62.6516 34.8279 62.374 33.8526 61.0663 33.0405C60.9005 32.9367 60.7277 32.8444 60.5491 32.7642C61.4236 32.5248 62.023 31.7246 62.004 30.8219C61.997 30.3831 61.7298 29.99 61.3233 29.8203C60.9168 29.6506 60.4479 29.7365 60.1286 30.0391C59.9525 30.2184 59.8415 30.4512 59.8133 30.7005C59.3648 30.8246 58.8986 30.8728 58.4341 30.8428C58.0735 30.8387 57.7153 30.7837 57.3703 30.6795C57.7556 30.4342 58.1174 30.154 58.4509 29.8423C58.6864 29.6163 59.3255 29.4237 59.6072 28.9633C60.2155 28.019 60.6537 26.9764 60.9023 25.8823C61.0306 25.3575 61.0955 24.8192 61.0958 24.2791C61.0924 23.9139 61.0573 23.5498 60.9906 23.1907L60.9276 22.6967C60.8939 22.3033 60.7972 21.2651 59.889 20.9637C59.889 20.9637 58.3079 18.6028 58.2617 18.5233C58.2154 18.4437 58.1313 18.427 58.0725 18.494L57.3955 19.2767C57.164 19.2829 56.9357 19.3326 56.7227 19.4233C56.6801 19.3621 56.6291 19.3072 56.5713 19.26C56.5227 19.2163 56.4691 19.1783 56.4116 19.147L56.134 17.347L55.9322 17.3805L54.9651 17.5437C54.7751 17.5101 54.591 17.4495 54.4185 17.3637C54.3065 17.2991 54.2046 17.2187 54.1157 17.1251C54.129 17.0378 54.136 16.9497 54.1367 16.8614C54.1569 15.9822 53.6229 15.1843 52.8002 14.8641C51.9775 14.544 51.0415 14.77 50.4575 15.4298C50.3254 15.4086 50.1948 15.3792 50.0664 15.3419C49.9087 15.2916 49.7647 15.2056 49.6459 15.0907L49.0362 14.0358L47.573 14.9065C46.6983 14.1949 46.3115 13.9521 45.7565 14.1656C45.5317 14.2677 45.3354 14.4229 45.1846 14.6177C45.2441 14.5036 45.2772 14.3778 45.2813 14.2493C45.2858 13.9714 45.1786 13.7033 44.9836 13.5044C44.7886 13.3055 44.5219 13.1924 44.2427 13.1902L44.0199 13.0688C43.8937 12.7674 43.5489 11.9344 43.5153 11.8591C43.4921 11.8208 43.4538 11.7941 43.4098 11.7853C43.3658 11.7766 43.3202 11.7866 43.284 11.813L41.5474 13.1986C41.3688 12.2154 40.6314 11.4257 39.6594 11.1767V9.52326H38.8185V9.4814C38.8185 7.22512 37.2795 5.58837 35.1644 5.58837C35.0488 5.59277 34.9335 5.60536 34.8196 5.62605V4.14H36.4343V1.62837H34.8323V0H32.221V1.62837H30.6064V4.14H32.221V5.64279C32.0544 5.6126 31.8857 5.59441 31.7165 5.58837C29.5636 5.58837 28.0624 7.18744 28.0624 9.52326H27.0743V11.1977C26.0447 11.5432 25.3249 12.4712 25.2494 13.5502L24.4799 12.9098L23.0208 11.6791L22.8652 11.5493L19.8504 15.1242C19.4377 14.8724 18.959 14.7485 18.4754 14.7684C17.7396 14.8249 17.0105 14.9482 16.2973 15.1367C15.6753 14.4071 14.6317 14.1976 13.7744 14.6302C12.9882 14.9501 12.4849 15.7233 12.5129 16.5684C12.5134 16.6707 12.5219 16.7729 12.5381 16.874C12.4298 16.9778 12.3146 17.0743 12.1933 17.1628L12.0167 17.2884C10.9319 18.0628 10.3432 18.8372 10.2549 19.5823H5.56649V23.8856H8.82945C7.88915 24.6602 7.35379 25.8186 7.37457 27.0335C7.37457 29.3944 9.32983 30.5414 9.55689 30.6712C9.20456 30.7824 8.83744 30.8402 8.46783 30.8428C8.00339 30.8702 7.53756 30.8221 7.08864 30.7005C7.03915 30.1063 6.52354 29.6593 5.92556 29.6922C5.32758 29.7251 4.86455 30.2259 4.8811 30.8219C4.88237 31.7087 5.45826 32.4934 6.30654 32.7642C6.15096 32.8395 4.20411 33.6809 4.20411 35.4935C4.18338 36.5557 4.91927 37.4846 5.96174 37.7121C-2.25742 49.5075 -1.95252 65.2203 6.71808 76.6909C15.3887 88.1614 30.4705 92.804 44.1315 88.2078C57.7925 83.6115 66.9532 70.8124 66.8564 56.4572C66.8248 49.7501 64.7453 43.2111 60.8939 37.7079H60.9065ZM58.8335 27.3349C58.7424 28.2724 58.2736 29.1332 57.5343 29.7209C56.9673 30.1947 56.2695 30.4866 55.5327 30.5581C56.3974 31.1125 57.3941 31.4288 58.4215 31.4749C60.2254 31.4749 60.4566 31.1065 60.4566 30.7884C60.4589 30.5449 60.6578 30.3488 60.9023 30.3488C61.1485 30.3488 61.348 30.5475 61.348 30.7926C61.348 32.3581 59.3003 32.3581 58.4047 32.3581H58.0683L58.6065 32.6302L59.8679 33.1954C60.1525 33.309 60.4256 33.4491 60.6837 33.614C61.5247 34.1288 61.9451 34.7651 61.9451 35.4977C61.9715 36.3106 61.3618 37.0053 60.5491 37.0884C60.1702 37.0885 59.8085 36.9306 59.552 36.653C59.2955 36.3753 59.1676 36.0033 59.1994 35.6274C59.1994 35.3824 59.3989 35.1837 59.6451 35.1837C59.8912 35.1837 60.0908 35.3824 60.0908 35.6274C60.0908 36.0879 60.3599 36.2093 60.5113 36.2093C60.8604 36.152 61.1093 35.8409 61.0873 35.4893C61.0873 35.0707 60.8224 34.7107 60.2464 34.3549C60.0266 34.221 59.7943 34.1088 59.5526 34.02L58.2281 33.4423L56.6849 32.6512H56.6512C55.7484 32.0861 54.8971 31.4432 54.1073 30.7298L53.7709 30.466L53.855 30.3991C53.855 30.3991 54.4437 30.6042 54.6119 30.3991C54.7801 30.194 54.6623 29.6623 54.6623 29.6623L54.8768 29.7042H54.9903H55.1795C55.8269 29.6806 56.4511 29.4584 56.9666 29.0679C57.5269 28.631 57.8838 27.9854 57.9547 27.2805C57.9589 27.201 57.9589 27.1213 57.9547 27.0419C57.968 26.4757 57.7838 25.9224 57.4333 25.4763C57.3225 25.3642 57.258 25.2148 57.2525 25.0577C57.2503 24.957 57.2847 24.8589 57.3492 24.7814C57.4262 24.701 57.5321 24.6543 57.6436 24.6516C57.8302 24.6686 58.001 24.7628 58.1145 24.9112C58.6055 25.4986 58.8721 26.24 58.8672 27.0042C58.8736 27.1143 58.8736 27.2247 58.8672 27.3349H58.8335ZM58.8672 35.0665C58.4089 34.5349 58.2365 34.3423 57.7487 33.84L59.1741 34.4512C59.439 34.5558 59.5358 34.6646 59.5021 34.6646C59.2327 34.6876 58.9935 34.8453 58.8672 35.0833V35.0665ZM42.0057 13.7344L42.4683 13.814L42.3463 13.454L42.7164 13.6381L42.7584 13.186L43.0443 13.4707L43.1537 13.0521L43.4312 13.7135C43.6174 13.7554 43.7924 13.8368 43.9442 13.9521C44.0409 13.9521 44.4235 13.9814 44.4824 14.1823C44.5833 14.5298 43.839 14.6595 43.8433 14.7433C43.8475 14.827 44.0409 14.94 44.2091 15.0614C44.5456 15.3154 44.8444 15.6156 45.0963 15.953C45.1804 15.8526 45.4159 15.5679 45.4916 15.5009C45.5672 15.434 45.9457 14.9735 46.0676 14.9274C46.3283 14.827 46.6269 15.2163 46.8245 15.346C47.0645 15.5122 47.276 15.7158 47.451 15.9488L48.7755 15.1493C49.1017 15.8059 49.768 16.2272 50.5037 16.2419C50.6638 16.2598 50.8243 16.213 50.9495 16.1121C51.3265 15.6044 52.0107 15.4316 52.5854 15.6988C53.16 15.966 53.4659 16.5993 53.3168 17.213C53.2663 17.5353 53.8508 17.9874 54.0905 18.1047C54.3937 18.2643 54.7315 18.3476 55.0744 18.3474L55.4949 18.2805L55.8103 20.2647C54.2376 21.1019 54.162 21.1019 54.162 22.726C54.2092 23.2954 54.1258 23.868 53.9181 24.4005C53.755 24.7221 53.5275 25.007 53.2495 25.2377C53.2201 25.2628 53.1864 25.2795 53.1528 25.3047C53.1192 25.3298 53.1528 25.4302 53.1192 25.4847L53.5396 26.2256C53.8746 25.9771 54.1844 25.6967 54.4647 25.3884C54.4841 25.0409 54.477 24.6925 54.4437 24.346C54.4437 24.346 54.6455 23.986 54.6455 22.747C54.6455 21.6167 54.717 21.4033 55.1165 21.1312C55.4157 20.9111 55.732 20.7151 56.0626 20.5451C55.9743 20.9637 55.3519 21.194 55.3519 21.4074C55.3479 21.5692 55.4193 21.7238 55.5454 21.826L55.6589 21.7256C55.7702 21.6369 55.9125 21.5962 56.0541 21.6126C56.2442 21.4324 56.4795 21.3066 56.7353 21.2484C56.9685 21.2557 57.1976 21.3113 57.4081 21.4116L57.5174 21.2651C57.4137 21.1245 57.3419 20.9631 57.3072 20.7921C57.3072 20.6079 57.1474 20.4363 56.811 20.5493L56.9161 20.3316C57.0123 20.1765 57.1946 20.0966 57.3745 20.1307C57.5107 20.0838 57.6587 20.0838 57.795 20.1307L58.1776 19.6786L58.2449 20.0595H58.5014L58.4593 20.3777L58.7495 20.4195L58.6822 20.6665L58.9597 20.8214L58.4299 20.9972C58.4529 21.3749 58.2779 21.7376 57.9674 21.9558C58.0001 22.0163 58.0175 22.0838 58.0178 22.1526C58.0136 22.4819 57.7818 22.7648 57.4586 22.8349L57.3955 23.3163C57.5116 23.3944 57.6438 23.4459 57.7823 23.467C58.8378 23.4209 58.741 21.713 59.418 21.7298C60.095 21.7465 60.1202 22.3535 60.1665 22.8181C60.238 23.6344 60.5071 24.2121 60.1665 25.7484C59.9757 26.5866 59.6581 27.3912 59.2246 28.1344C59.2908 27.9074 59.3358 27.6748 59.3592 27.4395V27.067C59.3835 26.183 59.0847 25.3202 58.5182 24.6391C58.3216 24.3911 58.0277 24.2387 57.7109 24.2205C57.4826 24.2203 57.2641 24.3125 57.1055 24.4759C56.947 24.6393 56.8619 24.8599 56.8699 25.087C56.8764 25.36 56.9843 25.621 57.1726 25.8195C57.4489 26.1801 57.5969 26.6219 57.5931 27.0753V27.2721C57.5013 27.8119 57.2048 28.2959 56.7648 28.6242C56.7648 28.5823 56.7648 28.5405 56.7648 28.5153C56.8359 28.2302 56.9272 27.9504 57.0381 27.6781C57.072 27.5069 57.0931 27.3334 57.1012 27.1591C57.1483 26.9012 57.2215 26.6487 57.3198 26.4056C57.1054 26.5228 56.6554 27.0502 56.3443 27.0628H56.1214C56.1214 27.2177 56.1214 27.6488 56.1214 27.7535C56.1214 27.8581 55.8607 29.1098 55.8607 29.1223H55.8355L55.415 29.2019C55.415 29.2019 55.1165 28.9549 55.0744 28.9298L55.2973 27.7535L54.9399 28.5405C54.9399 28.5405 54.8305 28.3521 54.7212 28.193C54.6763 28.1251 54.596 28.0892 54.5152 28.1009L53.8886 29.2019C54.0646 29.4081 54.1975 29.6472 54.2797 29.9051L54.1409 29.9595C54.1115 29.9051 53.9055 29.5702 53.6616 29.5828C53.5144 29.5828 53.2411 29.8758 53.2117 29.9344L53.0813 29.8674C53.1248 29.7293 53.1855 29.5971 53.2621 29.474C53.1747 29.4489 53.0839 29.4376 52.993 29.4405C52.8114 29.4745 52.6366 29.5382 52.4758 29.6288L52.4296 29.4991C52.5836 29.3524 52.7735 29.2485 52.9804 29.1977C52.9467 29.1468 52.8935 29.112 52.8332 29.1014H52.5263V28.9884C52.6194 28.9335 52.7221 28.8966 52.829 28.8795C53.1234 28.8795 53.2495 29.0553 53.5649 29.0512L54.1704 27.8791C54.1493 27.4019 54.3848 27.3642 54.368 27.0167C54.368 26.8828 54.3974 26.7656 54.368 26.7698C54.3386 26.774 53.6616 27 53.5018 27.0084C53.342 27.0167 53.3925 26.5898 53.3757 26.4851L52.9762 25.807C52.7322 25.9111 52.4615 25.936 52.2025 25.8781L52.1394 25.786C51.6994 25.8867 51.2423 25.8867 50.8023 25.786L49.7721 25.514C49.5236 25.439 49.2709 25.3789 49.0152 25.334C48.712 25.4618 48.4288 25.6324 48.1743 25.8405C48.0784 25.9267 47.943 25.954 47.821 25.9116C47.7019 25.8525 47.6329 25.7251 47.6486 25.5935C47.6822 25.2883 47.6358 24.9797 47.5141 24.6977C47.3109 24.519 47.096 24.354 46.8707 24.2037L46.0088 23.5884L45.9499 23.5507C45.5167 23.2192 45.1847 22.7742 44.9912 22.2656H44.9323L44.7599 22.0814L44.1965 22.0019C43.9346 21.7017 43.6103 21.4618 43.2462 21.2986L43.1032 21.127C43.1263 20.9648 43.1163 20.7996 43.0738 20.6414C43.0284 20.5184 42.9384 20.4168 42.8215 20.3567C42.7332 20.4698 42.4893 20.8005 42.2959 21.0935C42.1034 21.3548 41.8788 21.591 41.6273 21.7967C41.7127 22.2112 41.7717 22.6307 41.8039 23.0526C41.882 23.1379 41.9537 23.2288 42.0183 23.3247C42.1024 23.446 42.4094 23.7726 42.4388 23.8688C42.4567 23.9063 42.4577 23.9496 42.4417 23.9879C42.4257 24.0262 42.3941 24.056 42.3547 24.0698C42.1891 24.0924 42.0216 24.0454 41.8922 23.94L41.7619 23.8563L41.6862 23.6177L41.4002 23.3414C41.3706 22.9719 41.3058 22.6061 41.2068 22.2488C41.1434 22.0822 41.0661 21.9212 40.9755 21.7674L41.0134 21.6209C41.1984 21.3781 41.6021 20.7837 41.4969 20.5158C41.4326 20.398 41.3437 20.2953 41.2362 20.2144C41.1159 20.112 41.0136 19.9903 40.9335 19.8544C40.821 19.9066 40.6922 19.9117 40.5759 19.8684C40.4597 19.8251 40.3658 19.7371 40.3154 19.6242C40.2859 19.5402 40.2859 19.4487 40.3154 19.3647C40.37 19.1972 40.5466 19.1553 40.5214 19.3647C40.513 19.4004 40.513 19.4377 40.5214 19.4735C40.5593 19.5781 40.7359 19.5363 40.8452 19.4986C40.8289 19.233 40.8902 18.9684 41.0218 18.7367C41.1957 18.4644 41.4284 18.2342 41.703 18.0628C41.8571 17.8926 42.0214 17.7319 42.195 17.5814C42.346 17.4307 42.5076 17.2908 42.6785 17.1628C43.0508 16.8966 43.363 16.5558 43.5952 16.1623L43.5027 15.7019C43.1858 15.4644 42.9413 15.1442 42.7962 14.7767C42.7786 14.7205 42.7645 14.6632 42.7542 14.6051C42.5229 14.58 41.8754 14.4293 41.7871 14.1363L42.401 14.0526L42.0057 13.7344ZM50.5416 26.7656C50.1463 26.2549 51.0924 26.0288 51.248 26.2214C51.7231 26.8367 52.2824 27.5484 52.9047 28.2474L53.1065 28.4819H52.7954C52.6128 28.4996 52.4363 28.5567 52.2782 28.6493L52.1731 28.7037L52.0637 28.6367C51.4793 27.967 50.9495 27.2888 50.5416 26.7656ZM51.4793 28.666C50.2402 27.8699 48.9492 27.1567 47.615 26.5312C47.9604 26.6065 48.3214 26.5167 48.5905 26.2884C48.7178 26.1735 48.8591 26.0751 49.011 25.9953C49.1414 26.0247 49.2843 26.0581 49.4315 26.0958C49.6459 26.3219 49.995 26.7698 50.2472 27.1005C50.5962 27.5442 51.0209 28.0842 51.5087 28.666H51.4793ZM52.0974 26.5312C52.2855 26.56 52.4769 26.56 52.665 26.5312L52.7617 26.6986C52.7342 26.9779 52.8257 27.2558 53.014 27.4647L53.5186 27.6488C53.5186 27.6488 53.4093 27.8037 53.3 27.9502C52.85 27.4437 52.459 26.954 52.0974 26.5144V26.5312ZM42.8888 24.2163C42.9258 24.1332 42.9458 24.0435 42.9476 23.9526C42.9469 23.8736 42.9312 23.7955 42.9014 23.7223V23.5256C42.9014 23.5256 44.7599 23.5005 45.2645 23.5047C45.7691 23.5088 45.9289 24.3419 45.4453 24.3419L42.8089 24.4005L42.8888 24.2163ZM42.586 23.0526L42.4052 22.8265C42.3758 22.5335 42.3421 22.2656 42.3001 22.0144C42.3145 21.9257 42.3145 21.8352 42.3001 21.7465C42.4683 21.5372 42.6701 21.2986 42.6701 21.2986V21.5581L42.9014 21.8344L43.0738 21.8679C43.1358 21.8939 43.195 21.9262 43.2504 21.9642L43.9021 22.5502L44.4445 22.6381L44.474 22.6633C44.5387 22.7934 44.6117 22.9192 44.6926 23.04C44.0745 23.0609 43.3387 23.0735 42.5524 23.04L42.586 23.0526ZM45.3276 24.8149C45.748 24.8149 46.3199 24.7772 46.6269 24.7898C46.7488 24.8777 46.8623 24.9614 46.9633 25.0451C46.9945 25.2487 47.0044 25.4549 46.9927 25.6605C47.0036 25.9771 47.1723 26.2676 47.4426 26.4349C46.1122 25.82 44.7427 25.2928 43.3429 24.8567C44.0955 24.8567 44.7767 24.8567 45.3276 24.8149ZM40.6392 22.5042C40.2429 22.0923 40.024 21.5424 40.0295 20.9721C40.0316 20.7555 40.0627 20.5401 40.122 20.3316C40.2785 20.438 40.4623 20.4976 40.6518 20.5033L40.8704 20.7209C40.7529 20.9536 40.6121 21.1738 40.4499 21.3781L40.3406 21.8805C40.4646 22.0815 40.5675 22.2947 40.6476 22.5167L40.6392 22.5042ZM42.2917 15.1535C42.4497 15.4904 42.6742 15.7922 42.9518 16.0409V16.066C42.644 16.3926 42.3138 16.6975 41.9637 16.9786C41.6463 16.9913 41.3321 17.0476 41.0302 17.146C40.8326 16.9158 40.5509 16.5726 40.2565 16.1749C40.7913 15.7986 41.1954 15.2661 41.4128 14.6512C41.6495 14.892 41.9523 15.058 42.2833 15.1284L42.2917 15.1535ZM31.7165 6.40465C32.1517 6.40001 32.5825 6.49151 32.9779 6.67256V3.3907H31.359V2.37767H32.9779V0.749302H34.0838V2.37767H35.6943V3.3907H34.0838V6.60977C34.4316 6.47203 34.8028 6.40239 35.1771 6.40465C36.859 6.40465 38.0111 7.66047 38.0111 9.4814C38.0111 9.4814 38.0111 9.5107 38.0111 9.52326H36.9515C36.9095 8.51023 36.2997 7.45953 35.0047 7.45953C34.3648 7.48719 33.7803 7.82906 33.4447 8.37209C33.1245 7.81301 32.5311 7.46429 31.8847 7.45535C30.4971 7.45535 29.9757 8.50186 29.9378 9.51907H28.8824V9.47721C28.8824 7.63535 30.0177 6.40047 31.7165 6.40047V6.40465ZM27.6798 10.1219H39.0623V10.9967H27.6798V10.1219ZM33.4447 15.2707C32.1327 15.2707 30.3961 13.546 29.4795 11.6037H30.64C31.3759 13.0019 32.549 14.2326 33.4447 14.2326C34.3403 14.2326 35.5176 13.0186 36.2535 11.6205H37.4224C36.5058 13.5628 34.7692 15.2874 33.4531 15.2874L33.4447 15.2707ZM37.6958 15.4884L37.4813 15.5679C37.2881 15.0836 37.0473 14.6195 36.7623 14.1823C36.8926 14.0274 37.023 13.8684 37.1449 13.7051C37.2172 14.3281 37.4039 14.9326 37.6958 15.4884ZM35.4041 15.4298C35.5479 15.6638 35.673 15.9088 35.7783 16.1623C34.9097 16.434 34.1096 16.8879 33.432 17.4935C32.7524 16.8899 31.9531 16.4349 31.0857 16.1581C31.195 15.9016 31.3214 15.6527 31.4642 15.413C32.0334 15.8534 32.7247 16.1091 33.4447 16.1456C34.1558 16.1113 34.8395 15.8615 35.4041 15.4298ZM30.1144 14.174C29.8223 14.617 29.5758 15.0882 29.3786 15.5805L29.1683 15.5009C29.4646 14.9362 29.6528 14.3216 29.7234 13.6884C29.8495 13.8558 29.9799 14.0149 30.1144 14.174ZM27.6756 11.6623C28.588 11.6623 29.2776 12.6084 29.2776 13.454C29.2075 14.2576 28.9513 15.0342 28.5292 15.7228C28.8908 15.8735 29.2692 16.0158 29.6519 16.1414C29.8806 15.4836 30.1929 14.8576 30.5811 14.2786L30.6779 14.1321L30.7998 14.2577C30.9428 14.4042 31.0857 14.5465 31.2203 14.6763L31.3086 14.7558L31.2497 14.8563C30.9287 15.3463 30.6689 15.8734 30.476 16.426C31.6071 16.8112 32.8181 17.3093 33.4194 18.18C34.0459 17.2591 35.2191 16.8363 36.3628 16.426C36.1672 15.8821 35.912 15.3613 35.6017 14.873L35.5387 14.7726L35.627 14.693C35.7741 14.5633 35.9213 14.4251 36.0475 14.2744L36.1652 14.1488L36.2661 14.2912C36.6517 14.8659 36.9612 15.4878 37.187 16.1414C37.6075 16.0033 38.0742 15.8107 38.3139 15.7228C37.8917 15.0339 37.6342 14.2577 37.5612 13.454C37.5612 12.6167 38.2466 11.6623 39.1633 11.6623C40.0799 11.6623 40.9419 12.6795 40.9419 13.8809C40.9419 14.7935 40.5214 15.4884 39.5837 16.066C39.969 16.627 40.3904 17.1626 40.8452 17.6693C40.8999 17.6693 41.7324 17.4181 41.7324 17.4181L41.2278 17.8367C40.8769 18.0595 40.6105 18.3924 40.471 18.7828H40.3827C40.0358 18.8442 39.7922 19.1573 39.8192 19.507C39.8249 19.5515 39.8362 19.5951 39.8528 19.6367V19.6953L39.8276 19.7456C39.6414 20.1277 39.5464 20.5474 39.5501 20.9721C39.5501 21.1353 39.5879 22.5795 40.8368 23.1991L40.9041 23.2326L40.9545 23.5758C41.026 23.6428 41.2531 23.8312 41.2531 23.8312L41.4171 24.1702L41.5979 24.3419L41.2068 24.3084C37.5234 23.9986 35.7069 23.0233 35.32 22.7595C34.9416 23.0233 33.8105 23.7935 33.4404 23.7935C33.0704 23.7935 31.9141 23.0233 31.5357 22.7595C31.0353 23.0316 28.2643 24.4088 23.9921 24.4088C23.2941 24.4088 22.4574 24.4088 21.8351 24.3753C21.608 24.3753 21.5617 23.513 21.8351 23.5381C22.1084 23.5633 23.5675 23.5381 24.2949 23.5381H24.5009C26.5445 23.5381 27.2761 22.2237 27.2761 20.9888C27.294 20.2808 27.0241 19.5956 26.5277 19.0884C26.0733 18.6262 25.4608 18.3513 24.8121 18.3181C23.8122 18.3055 22.8517 18.7055 22.1588 19.4233C22.0768 19.5267 21.9506 19.5856 21.8182 19.5823C21.5914 19.5699 21.4103 19.3895 21.3978 19.1637C21.3896 19.0475 21.4256 18.9324 21.4987 18.8414C22.3575 17.9182 23.5693 17.4009 24.8331 17.4181C25.2274 17.4249 25.6169 17.5059 25.981 17.6567C26.4331 17.1507 26.8544 16.6181 27.2425 16.0619C26.4366 15.617 25.9231 14.7851 25.8885 13.8684C25.8885 12.667 26.7043 11.6498 27.6672 11.6498L27.6756 11.6623ZM19.2575 25.6312C19.2746 25.7631 19.2052 25.8911 19.0851 25.9493C18.9635 26.0045 18.82 25.9739 18.7319 25.874C18.4922 25.6119 18.1785 25.428 17.832 25.3465C18.3216 25.0044 18.8662 24.7482 19.4425 24.5888C19.277 24.9099 19.2126 25.2731 19.2575 25.6312ZM19.2911 26.5102C17.9426 27.139 16.6376 27.8564 15.3848 28.6577C15.8936 28.0633 16.3141 27.5191 16.6463 27.0879C16.937 26.69 17.253 26.3111 17.5924 25.9535C17.8278 25.8614 18.1937 26.1837 18.2735 26.2716C18.5298 26.5515 18.933 26.6448 19.2869 26.506L19.2911 26.5102ZM19.8588 25.6688C19.8588 25.6228 19.8588 25.4553 19.8588 25.3926C19.8588 25.2042 19.8966 24.907 20.0606 24.8107C20.5535 24.7799 21.0478 24.7799 21.5407 24.8107C22.0873 24.8107 22.7727 24.8526 23.5338 24.8526C22.1211 25.2898 20.7401 25.8227 19.4004 26.4474C19.6908 26.2886 19.8725 25.9861 19.8756 25.6563L19.8588 25.6688ZM21.1371 20.34V20.294H23.2773C23.2736 20.2494 23.2736 20.2046 23.2773 20.16C23.2794 19.4401 23.8578 18.8531 24.5808 18.8372C25.1392 18.8375 25.6357 19.1906 25.8171 19.7163C26.3403 19.9013 26.6898 20.3942 26.6898 20.947C26.6898 21.4997 26.3403 21.9926 25.8171 22.1777C25.6368 22.7042 25.1396 23.0578 24.5808 23.0567C23.8585 23.0571 23.2664 22.4862 23.2437 21.7674C23.2395 21.7229 23.2395 21.678 23.2437 21.6335H21.4987L21.4734 21.6C21.4578 21.5685 21.4347 21.5412 21.4062 21.5205C21.057 21.2518 20.9313 20.784 21.0992 20.3777L21.1371 20.34ZM21.0151 18.8288L20.8175 17.9916L21.9612 16.6353L22.8526 17.3847C21.8266 17.8033 21.1076 18.5107 21.0151 18.8288ZM23.2605 23.0651C22.7391 23.0651 22.264 23.0442 21.8519 23.0316C21.8182 22.7972 21.8056 22.6423 21.7425 22.2865H22.7896C22.8793 22.5787 23.0395 22.8446 23.2563 23.0609L23.2605 23.0651ZM25.4975 14.7767C25.7204 15.3362 26.1053 15.817 26.6034 16.1581C26.309 16.5767 26.0315 16.8991 25.8339 17.1293C25.5138 17.0214 25.1793 16.9621 24.8415 16.9535C24.4028 16.955 23.9661 17.0127 23.5422 17.1251L25.4975 14.7767ZM22.9746 12.6837L23.866 13.433L23.6389 13.7009L24.2108 14.174L24.4337 13.9102L25.0518 14.4209L24.173 15.4633L23.5464 14.9484L23.7693 14.6805L23.2016 14.2033L22.5373 14.9902L23.1259 15.4884L23.3488 15.2247L23.9669 15.7144L23.0713 16.7442L22.4574 16.2419L22.6802 15.9781L22.1126 15.4884L20.603 17.2926C20.603 17.2926 20.603 17.2633 20.5652 17.2465C20.1965 16.992 20.0082 16.5486 20.0816 16.1079L22.9746 12.6837ZM12.4624 17.9414L12.618 17.8326C12.9376 17.6149 13.4169 17.2842 13.3581 16.9409C13.1933 16.3014 13.5091 15.6356 14.11 15.356C14.7108 15.0764 15.4265 15.2621 15.8137 15.7981C15.923 15.9102 16.0782 15.9659 16.2342 15.9488C16.7514 15.9488 17.5419 15.5721 18.5258 15.5721C19.1355 15.5721 19.5644 15.7521 19.7032 16.133C20.4979 18.4102 21.3389 23.5967 21.3389 23.6051C20.3088 23.6885 19.3013 23.9506 18.3618 24.3795C17.4392 24.8468 16.5894 25.4446 15.8389 26.1544C15.8389 26.1544 12.3783 22.1526 11.1295 20.093C10.7889 19.5363 11.3019 18.7744 12.4666 17.9288L12.4624 17.9414ZM13.8753 26.4098L14.548 25.6102C14.7877 25.8907 14.8886 26.0288 15.0442 26.1921C14.7793 26.527 14.4892 26.8912 14.1612 27.2847C14.1347 26.975 14.0369 26.6756 13.8753 26.4098ZM13.1604 26.4098C13.4436 26.6292 13.6158 26.9613 13.6314 27.3181C13.664 27.6702 13.5532 28.0205 13.3239 28.2904C13.0946 28.5604 12.7661 28.7274 12.412 28.754C12.2227 28.7414 12.0353 28.7091 11.8527 28.6577C11.6532 28.7666 11.4322 28.8309 11.2052 28.846C10.4828 28.8464 9.89077 28.2755 9.86805 27.5567C9.87891 27.3945 9.90999 27.2342 9.96056 27.0795C9.86913 26.9117 9.8039 26.7311 9.76713 26.5437C9.74305 26.1928 9.85945 25.8467 10.0909 25.5809C10.3162 25.3123 10.6404 25.1449 10.9907 25.1163H11.1043C11.4193 25.1152 11.7246 25.2249 11.9663 25.426C11.9979 25.4546 12.0274 25.4854 12.0546 25.5181L13.3623 23.9526C13.5982 23.9925 13.8149 24.107 13.9804 24.2791C14.1211 24.4791 14.204 24.7136 14.2201 24.9572L13.0595 26.3553C13.0979 26.3776 13.1345 26.4027 13.1689 26.4307L13.1604 26.4098ZM12.3994 22.9186C12.2707 22.8471 12.1263 22.8082 11.9789 22.8056C11.2996 22.8429 10.6353 23.0196 10.0278 23.3247V22.1442H11.8065L12.3826 22.9102L12.3994 22.9186ZM8.05996 23.086V22.2865H8.40897V21.5456H7.39139V22.2865H7.7404V23.086H6.37382V22.2865H6.72703V21.5456H6.37802V20.3819H10.8352C11.4365 20.8005 11.5164 21.0558 11.5248 21.5456H9.09436V22.2865H9.43915V23.086H8.05996ZM4.86848 35.4726C4.86848 34.7526 5.28897 34.1247 6.12994 33.6056C6.39446 33.4366 6.67639 33.2963 6.97091 33.187L8.23236 32.6344L8.76217 32.3581H8.45101C6.44951 32.3581 5.50762 31.86 5.50762 30.7926C5.49116 30.6245 5.57194 30.4617 5.71599 30.3726C5.86004 30.2835 6.04242 30.2835 6.18647 30.3726C6.33052 30.4617 6.4113 30.6245 6.39484 30.7926C6.38846 30.909 6.43113 31.0227 6.51258 31.1065C6.8784 31.4749 8.04735 31.4749 8.4342 31.4749C9.46916 31.4443 10.4769 31.1379 11.3524 30.5874C10.6171 30.5151 9.92088 30.2233 9.35506 29.7502C7.8632 28.5662 7.60287 26.409 8.77058 24.907C9.57523 23.9399 10.7488 23.3512 12.0083 23.2828C12.2458 23.2803 12.4427 23.4652 12.454 23.7014C12.4518 23.9455 12.2535 24.1428 12.0083 24.1451C11.0121 24.2157 10.0883 24.6891 9.45177 25.4553C8.59648 26.5804 8.8082 28.1808 9.92692 29.047C10.3988 29.4463 10.9902 29.6788 11.6089 29.7084C12.3798 29.6737 13.0924 29.2897 13.5431 28.666L13.6566 28.574C14.3294 27.8498 15.2124 26.7614 15.4395 26.4809C15.6665 26.2005 16.394 26.6819 16.0912 27.067C15.2081 28.224 14.2397 29.3139 13.1941 30.3279C13.1377 30.3892 13.0757 30.4452 13.0091 30.4953C12.1593 31.2943 11.2326 32.0079 10.2423 32.626L8.615 33.4633L7.3073 34.0367C7.06467 34.1265 6.83099 34.2386 6.60929 34.3716C6.00379 34.7442 5.73889 35.1251 5.76832 35.5688C5.76832 35.9288 6.07107 36.2219 6.28972 36.2219C6.71021 36.2219 6.77328 35.8619 6.77328 35.6442C6.77475 35.526 6.82312 35.4131 6.90783 35.3302C6.98954 35.2472 7.10226 35.2017 7.21899 35.2047C7.45563 35.2043 7.65131 35.3881 7.66471 35.6233C7.69252 36.0105 7.55337 36.3911 7.2821 36.67C7.01083 36.9488 6.6331 37.0995 6.24347 37.0842C5.4339 36.9826 4.83784 36.28 4.87269 35.4684L4.86848 35.4726ZM8.97242 34.0116C8.48045 34.5181 8.50988 34.5265 8.05155 35.0623C8.02278 35.0113 7.99047 34.9623 7.95484 34.9158C7.8198 34.7558 7.62225 34.6613 7.41242 34.6563C7.28627 34.6563 7.4881 34.56 7.68573 34.4805C7.88336 34.4009 8.97242 34.0116 8.97242 34.0116ZM33.6381 89.1377C21.3428 89.2212 10.0457 82.4126 4.42015 71.5284C-1.20543 60.6442 -0.202927 47.5351 7.01296 37.6242C7.25492 37.5361 7.47761 37.4025 7.66891 37.2307C8.01194 36.8944 8.22865 36.4511 8.28282 35.9749C14.474 28.4975 23.6983 24.1664 33.432 24.1664C43.1658 24.1664 52.39 28.4975 58.5813 35.9749C58.6418 36.7219 59.1348 37.365 59.8427 37.62C67.0165 47.47 68.0556 60.4865 62.5345 71.3409C57.0134 82.1952 45.8592 89.0649 33.6381 89.1377Z" fill="#261F1F"/>
<path d="M58.2154 56.6749C58.2154 43.0833 47.1478 32.0651 33.4951 32.0651C19.8425 32.0651 8.77479 43.0833 8.77479 56.6749C8.77479 70.2665 19.8425 81.2847 33.4951 81.2847C47.141 81.2685 58.1992 70.2598 58.2154 56.6749ZM33.1041 80.4767C20.1873 80.2523 9.77951 69.8651 9.58632 57.0056H33.1041V80.4767ZM33.1041 56.1977H9.59053C9.86198 43.3977 20.2456 33.0993 33.1041 32.8772V56.1977ZM33.9114 32.873C46.7614 33.1106 57.1307 43.4058 57.4039 56.1977H33.9114V32.873ZM33.9114 80.4726V57.0056H57.4039C57.2111 69.8555 46.8183 80.2389 33.9114 80.4767V80.4726Z" fill="#261F1F"/>
<path fill-rule="evenodd" clip-rule="evenodd" d="M13.7533 74.5116C13.665 74.407 13.4548 74.1391 13.2235 73.8712C13.1773 73.8209 13.1142 73.8 13.0764 73.8335C13.0385 73.867 13.0764 73.9214 13.0764 73.9633C13.3581 74.2898 13.3581 74.3567 12.7442 74.8884L10.7427 76.6298C10.6922 76.6758 10.6628 76.6926 10.5198 76.5251C10.1666 76.1065 10.2507 75.6879 10.709 75.2693C11.0017 74.9597 11.491 74.9447 11.8023 75.2358C11.8906 75.3405 11.9452 75.3405 11.9831 75.3112C12.0209 75.2819 11.941 75.1479 11.9074 75.1102C11.6923 74.8262 11.3664 74.6462 11.0104 74.6151C10.6545 74.584 10.302 74.7046 10.0404 74.947C9.54428 75.3656 9.71668 76.027 10.1666 76.546C10.3348 76.7302 10.5492 76.9646 10.6922 77.1237C10.8352 77.2828 11.0034 77.4963 11.1884 77.7098C11.2599 77.7893 11.3061 77.7977 11.3355 77.7684C11.365 77.7391 11.3734 77.6888 11.3355 77.6302C11.1169 77.3791 11.1001 77.2744 11.3776 77.0316L13.3202 75.3572C13.829 74.9135 13.9257 74.9386 14.1107 75.1312C14.1528 75.1772 14.1948 75.2065 14.2327 75.173C14.2705 75.1395 14.2705 75.0851 14.2033 75.0181C14.0729 74.8549 13.8332 74.5995 13.7491 74.5242" fill="#261F1F"/>
<path d="M10.7847 70.4135C10.5026 69.8903 10.0129 69.5091 9.43484 69.3626C8.85682 69.2162 8.2436 69.318 7.7446 69.6433C6.69759 70.2754 6.48315 71.393 7.17274 72.54C7.43322 73.0581 7.90004 73.4436 8.45958 73.6027C9.01912 73.7619 9.62006 73.6801 10.1161 73.3772C10.6104 73.09 10.9621 72.6107 11.0865 72.0546C11.211 71.4985 11.0971 70.9159 10.7721 70.447M7.49231 72.54C7.0466 71.8074 7.31571 70.8656 8.33328 70.2461C9.62837 69.4633 10.2171 70.0995 10.4063 70.4093C10.9277 71.2465 10.5072 72.226 9.5653 72.7912C8.45522 73.4693 7.80767 73.0465 7.49651 72.54" fill="#261F1F"/>
<path fill-rule="evenodd" clip-rule="evenodd" d="M8.97242 67.7093C8.99765 67.7805 9.03128 67.8056 9.07333 67.793C9.11538 67.7805 9.13641 67.7177 9.09856 67.634C9.00185 67.3744 8.90093 67.14 8.88832 67.0981C8.8757 67.0563 8.79161 66.7926 8.67808 66.4661C8.64444 66.3781 8.59818 66.3363 8.54773 66.3572C8.49727 66.3781 8.50568 66.4074 8.54773 66.4828C8.65705 66.7884 8.62341 66.9433 8.12724 67.1316L6.0963 67.8935L7.82449 64.2726C7.86597 64.2049 7.88234 64.1249 7.87074 64.0465C7.84972 63.9921 7.78244 63.9712 7.6605 64.0172L4.49004 65.093C4.17048 65.2019 4.06956 65.1893 3.96444 64.9381C3.935 64.8544 3.90136 64.8251 3.85932 64.8377C3.81727 64.8502 3.80886 64.9256 3.83829 65.0051C3.92659 65.2521 4.0149 65.4237 4.03592 65.4907C4.05694 65.5577 4.14104 65.8423 4.23355 66.1061C4.2756 66.2023 4.31765 66.2526 4.3639 66.2358C4.41015 66.2191 4.41436 66.1688 4.39333 66.1061C4.27139 65.767 4.32185 65.6874 4.70029 65.5326L6.8826 64.6954L5.09975 68.266C5.04662 68.3602 5.02456 68.4685 5.03667 68.5758C5.0619 68.6344 5.146 68.6344 5.25533 68.5967L8.33328 67.5419C8.83786 67.3702 8.88411 67.454 8.97662 67.7135" fill="#261F1F"/>
<path fill-rule="evenodd" clip-rule="evenodd" d="M4.20411 63.6279C4.25878 63.6279 4.31765 63.5986 4.30503 63.5316C4.2946 63.4857 4.25108 63.455 4.20411 63.4605C4.01069 63.4605 3.87614 63.3516 3.78363 62.9414L3.62805 62.1963L6.23506 61.7442C7.07603 61.6019 7.1391 61.6395 7.18956 61.9326C7.18956 61.9954 7.2232 62.0414 7.27786 62.0247C7.33252 62.0079 7.34934 61.9744 7.33252 61.8865C7.29889 61.6772 7.2232 61.3423 7.20217 61.2251C7.18115 61.1079 7.1349 60.7437 7.07603 60.3879C7.07603 60.3126 7.02137 60.2623 6.97511 60.2749C6.92886 60.2874 6.91204 60.3377 6.92465 60.3921C6.99614 60.8107 6.95829 60.8735 6.08368 61.0284L3.51031 61.4721L3.4136 60.8316C3.34212 60.367 3.4136 60.2288 3.64066 60.1786C3.73738 60.1535 3.7584 60.12 3.74999 60.074C3.74158 60.0279 3.70794 60.0154 3.62805 60.0195L3.02255 60.1033C2.91743 60.1242 2.888 60.1493 2.8922 60.1995C2.96907 60.3579 3.02558 60.5253 3.06039 60.6977L3.48088 63.0544C3.50406 63.2169 3.50406 63.3817 3.48088 63.5442C3.48088 63.5944 3.51872 63.6028 3.61544 63.6154C3.81112 63.6334 4.00784 63.6376 4.20411 63.6279Z" fill="#261F1F"/>
<path fill-rule="evenodd" clip-rule="evenodd" d="M3.02676 58.9437C3.02676 58.6465 3.09403 58.6088 3.29166 58.5837C3.48929 58.5586 3.61123 58.5837 4.41436 58.5167L5.34363 58.4707C5.85662 58.4456 6.27711 58.4246 6.48735 58.4414C6.69759 58.4581 6.76907 58.5293 6.77328 58.747C6.77328 58.8098 6.7943 58.86 6.84476 58.86C6.89522 58.86 6.92886 58.8098 6.92465 58.7177C6.92465 58.5084 6.8742 58.1693 6.86999 58.0479C6.86579 57.9265 6.86999 57.5665 6.86999 57.2107C6.86999 57.1186 6.82374 57.0767 6.77328 57.0809C6.72282 57.0851 6.706 57.1395 6.71021 57.1981C6.71021 57.4953 6.71021 57.646 6.48314 57.6712C6.25608 57.6963 5.8398 57.7214 5.32681 57.7465L4.39754 57.7926C3.59441 57.8344 3.44304 57.847 3.27905 57.8386C3.04358 57.8386 2.98471 57.7633 2.97209 57.5205C2.97209 57.4702 2.97209 57.4074 2.88379 57.4116C2.79549 57.4158 2.82072 57.466 2.82492 57.5581C2.82492 57.7633 2.86697 58.073 2.87118 58.207C2.87538 58.3409 2.87118 58.6967 2.87118 58.9019C2.87118 59.0065 2.90902 59.0567 2.95107 59.0526C2.99312 59.0484 3.02255 58.9856 3.02255 58.9353" fill="#261F1F"/>
<path fill-rule="evenodd" clip-rule="evenodd" d="M2.87118 55.8251C2.91322 55.8251 2.93845 55.7874 2.94266 55.7121C2.96789 55.3354 3.03517 55.2935 3.57339 55.327L5.94913 55.4944C6.68498 55.5447 6.71021 55.6242 6.68918 55.913C6.68918 55.9758 6.68918 56.0219 6.75646 56.0219C6.82374 56.0219 6.83635 55.9884 6.84056 55.8963C6.84056 55.6912 6.86579 55.3479 6.8742 55.214C6.8826 55.08 6.92045 54.7451 6.94568 54.4061C6.94568 54.3056 6.92045 54.2637 6.8784 54.2595C6.83635 54.2554 6.80271 54.3014 6.79851 54.3684C6.76907 54.7619 6.76066 54.8456 5.99118 54.787L5.15021 54.7284C5.12918 54.7284 5.12498 54.7284 5.12918 54.6823C5.13339 54.6363 5.17123 54.0628 5.19225 53.9288C5.20457 53.8484 5.24905 53.7763 5.31558 53.729C5.3821 53.6817 5.46502 53.6632 5.54546 53.6777C5.59592 53.6777 5.65058 53.6777 5.65479 53.6149C5.65899 53.5521 5.59171 53.5312 5.52864 53.527C5.28969 53.5037 5.05238 53.4659 4.81802 53.414C4.78018 53.414 4.74654 53.414 4.74234 53.4642C4.73813 53.5144 4.89371 53.5521 4.87689 53.7991L4.82223 54.6698C4.82223 54.6698 4.82223 54.7033 4.797 54.7033L3.25802 54.5944C3.24762 54.5958 3.23715 54.5923 3.22973 54.5849C3.2223 54.5775 3.21877 54.5671 3.22018 54.5567L3.29166 53.753C3.29166 53.5563 3.38837 53.4642 3.45565 53.4391C3.51904 53.4224 3.58569 53.4224 3.64907 53.4391C3.72476 53.4391 3.7626 53.4391 3.76681 53.3679C3.77101 53.2967 3.72897 53.2967 3.6743 53.2842C3.61964 53.2716 3.30007 53.2381 3.25382 53.2256C3.18561 53.2128 3.11822 53.196 3.05198 53.1754H3.01835C2.97209 53.1754 2.93845 53.1754 2.93425 53.234C2.92813 53.253 2.92813 53.2735 2.93425 53.2926V53.3135C2.94695 53.3883 2.94695 53.4647 2.93425 53.5395C2.93425 53.6609 2.85856 54.7409 2.84595 54.946C2.83333 55.1512 2.79549 55.4316 2.77867 55.7079C2.77867 55.8126 2.77867 55.8628 2.84595 55.867" fill="#261F1F"/>
<path fill-rule="evenodd" clip-rule="evenodd" d="M3.36314 51.7353C3.42201 51.4423 3.51031 51.4256 3.70794 51.4465C3.90557 51.4674 4.02751 51.5009 4.81802 51.6433L5.73048 51.8149C6.23506 51.9112 6.64713 51.9907 6.85317 52.0577C7.05921 52.1246 7.09705 52.2042 7.05921 52.4219C7.05921 52.4846 7.05921 52.5349 7.09705 52.5432C7.1349 52.5516 7.18956 52.5181 7.20638 52.426C7.24002 52.2167 7.29048 51.8819 7.3115 51.7605C7.33252 51.6391 7.42503 51.2916 7.49231 50.9526C7.49231 50.8646 7.49231 50.8144 7.43344 50.806C7.37457 50.7977 7.34934 50.8479 7.34093 50.9023C7.28627 51.1953 7.2232 51.3209 7.00875 51.3209C6.7943 51.3209 6.36961 51.2205 5.86503 51.1284L4.94837 50.9526C4.16207 50.8019 4.01069 50.7809 3.85511 50.7391C3.62805 50.6721 3.586 50.5926 3.63226 50.3539C3.63226 50.3079 3.63225 50.2409 3.56918 50.2284C3.50611 50.2158 3.4977 50.266 3.48088 50.3539C3.43883 50.5591 3.39678 50.8646 3.36735 50.9986C3.33792 51.1326 3.26643 51.4758 3.22438 51.6767C3.22438 51.7814 3.22438 51.8358 3.26643 51.8442C3.30848 51.8526 3.35473 51.7981 3.36314 51.7479" fill="#261F1F"/>
<path fill-rule="evenodd" clip-rule="evenodd" d="M5.67581 49.1651C7.10126 49.6758 8.11883 48.7465 8.55193 47.4907C8.6709 47.1852 8.74181 46.8633 8.76217 46.5363C8.76231 46.4541 8.71924 46.3779 8.64864 46.3354C8.44445 46.2041 8.23083 46.088 8.00951 45.9879C7.95484 45.9879 7.90859 45.9879 7.89177 46.0256C7.87495 46.0633 7.89177 46.0967 7.97587 46.1554C8.3501 46.4191 8.4384 46.7121 8.19031 47.4112C7.88756 48.2944 7.06341 48.7674 5.88606 48.3698C4.95678 48.014 4.46482 47.3902 4.79279 46.4316C4.99463 45.8414 5.43193 45.3181 5.96174 45.5023C6.05004 45.5274 6.10471 45.5023 6.12573 45.4647C6.14676 45.427 6.10471 45.3726 6.01641 45.3391C5.9281 45.3056 5.64638 45.1967 5.47818 45.134C5.30999 45.0712 5.25112 45.0251 5.21328 45.0126C5.17544 45 5.12918 45.0126 5.09554 45.0837C4.87948 45.4653 4.68982 45.8611 4.52789 46.2684C4.1074 47.4614 4.448 48.7256 5.67581 49.14" fill="#261F1F"/>
<path fill-rule="evenodd" clip-rule="evenodd" d="M5.91969 43.5684C6.05004 43.3047 6.14676 43.313 6.34018 43.3884C6.5336 43.4637 6.63031 43.5265 7.34934 43.8823L8.19031 44.3009C8.64444 44.5353 9.03128 44.7195 9.19527 44.8451C9.35926 44.9707 9.3929 45.0586 9.29199 45.2637C9.26255 45.3223 9.24994 45.3726 9.29199 45.3935C9.33403 45.4144 9.3887 45.3935 9.43074 45.314C9.51905 45.1214 9.66201 44.8116 9.71667 44.7028C9.77134 44.594 9.95635 44.2842 10.1119 43.9744C10.154 43.8949 10.1414 43.8405 10.1119 43.8195C10.0825 43.7986 10.0236 43.8195 9.9984 43.8865C9.85964 44.1502 9.76293 44.2674 9.57791 44.1837C9.3929 44.1 8.99344 43.9116 8.53511 43.6772L7.69414 43.2586C6.97932 42.8944 6.85317 42.84 6.7018 42.7479C6.55042 42.6558 6.48314 42.5344 6.59247 42.3293C6.61349 42.2874 6.63031 42.2247 6.56724 42.1954C6.50417 42.166 6.48735 42.1954 6.4495 42.2916C6.35279 42.4716 6.22244 42.7563 6.16358 42.8777C6.10471 42.9991 5.9281 43.2963 5.8356 43.4888C5.78514 43.5851 5.78934 43.6395 5.8356 43.6605C5.88185 43.6814 5.93651 43.6605 5.96174 43.5935" fill="#261F1F"/>
<path d="M10.2086 42.4758C10.4273 42.8107 10.4399 42.9656 10.2507 43.2335C10.2255 43.267 10.2128 43.313 10.2507 43.3423C10.2885 43.3716 10.3348 43.3423 10.3895 43.2837C10.545 43.0535 10.7006 42.8107 10.7385 42.7563C10.8268 42.6223 10.9781 42.4381 11.0748 42.3C11.1127 42.2414 11.1253 42.1995 11.0748 42.1619C11.0244 42.1242 10.9949 42.1619 10.9193 42.2581C10.8436 42.3544 10.7553 42.4005 10.688 42.3544C10.6064 42.2814 10.5343 42.1984 10.4735 42.1074L10.154 41.6219C10.1435 41.6037 10.1435 41.5814 10.154 41.5633L10.9319 40.5126C10.9319 40.4874 10.9613 40.4791 10.9781 40.4833L11.92 40.7051C11.9705 40.7051 11.8401 40.9605 11.8275 40.9856C11.8149 41.0107 11.7939 41.0735 11.8275 41.1028C11.8611 41.1321 11.9326 41.1028 12.0125 40.9814C12.0924 40.86 12.2438 40.6172 12.3363 40.4874C12.4288 40.3577 12.5676 40.1944 12.6433 40.0688C12.7736 39.8847 12.7736 39.8219 12.74 39.8009C12.7063 39.78 12.6601 39.8009 12.6222 39.8386C12.4751 40.0479 12.1513 40.0061 11.8443 39.9391C11.0034 39.7674 8.72853 39.24 8.41317 39.1814C8.2618 39.1521 8.20713 39.1563 8.16929 39.1814C8.13145 39.2065 8.16929 39.307 8.2618 39.4619L10.2086 42.4758ZM10.6291 40.3828L9.97738 41.3037L9.06072 39.9851H9.08174L10.6291 40.3828Z" fill="#261F1F"/>
<path fill-rule="evenodd" clip-rule="evenodd" d="M12.2985 34.6647C12.576 34.4302 12.6601 34.4386 13.0133 34.8614L14.0266 36.0628C14.8214 37.0088 15.6077 37.0842 16.4739 36.3558C17.4116 35.573 17.2434 34.6814 16.4739 33.7772L15.5993 32.7349C15.2545 32.3163 15.204 32.2577 15.4605 32.0442C15.5236 31.9898 15.5362 31.9437 15.5026 31.906C15.4689 31.8684 15.4269 31.8809 15.347 31.9437C15.1914 32.0777 15.0358 32.2242 14.8971 32.3623C14.7583 32.5005 14.6153 32.5674 14.4093 32.7433C14.3294 32.806 14.3168 32.8563 14.342 32.8898C14.3672 32.9233 14.4261 32.9191 14.485 32.8898C14.7919 32.6386 14.855 32.7014 15.1956 33.1033L16.1291 34.2209C16.7976 35.0581 16.97 35.573 16.3435 36.0712C15.6665 36.6405 15.1157 36.2512 14.5733 35.6107L13.5809 34.3884C13.2445 33.9698 13.2361 33.8902 13.4548 33.7102C13.5137 33.66 13.5221 33.614 13.4926 33.5763C13.4632 33.5386 13.4085 33.5428 13.3328 33.6098C13.1857 33.7312 12.9965 33.9154 12.8367 34.0284C12.6769 34.1414 12.4456 34.3298 12.227 34.5098C12.1471 34.5767 12.1345 34.6228 12.1681 34.6605C12.2017 34.6981 12.2396 34.694 12.2985 34.6605" fill="#261F1F"/>
<path fill-rule="evenodd" clip-rule="evenodd" d="M18.7781 33.6391C19.0304 34.1037 18.9547 34.1623 18.7109 34.2963C18.6436 34.334 18.6225 34.3674 18.6436 34.4051C18.6646 34.4428 18.7277 34.4554 18.8034 34.4051C19.0472 34.2754 19.2659 34.1372 19.3037 34.1163C19.3416 34.0953 19.5897 33.9781 19.8966 33.8107C19.9765 33.7647 20.0102 33.7144 19.9849 33.6642C19.9597 33.614 19.9261 33.6307 19.8588 33.6642C19.5728 33.8191 19.4089 33.8107 19.1482 33.3628L18.0801 31.4916L21.9444 32.6219C22.0191 32.6487 22.1009 32.6487 22.1756 32.6219C22.2261 32.5926 22.2345 32.5256 22.1756 32.4126L20.603 29.4823C20.4475 29.1893 20.439 29.0637 20.6787 28.9381C20.7544 28.9005 20.7796 28.8586 20.7586 28.8209C20.7376 28.7833 20.6661 28.7833 20.5904 28.8209C20.3592 28.9465 20.1699 29.0679 20.1363 29.093C20.1027 29.1181 19.8041 29.2521 19.5602 29.386C19.4719 29.4447 19.4257 29.4907 19.4509 29.5326C19.4761 29.5744 19.5266 29.5744 19.5813 29.5326C19.9008 29.3609 20.0017 29.3944 20.2036 29.7419L21.3809 31.7595L17.5503 30.5581C17.4495 30.5237 17.34 30.5237 17.2392 30.5581C17.1803 30.5874 17.1929 30.667 17.2392 30.7758L18.7781 33.6391Z" fill="#261F1F"/>
<path fill-rule="evenodd" clip-rule="evenodd" d="M22.306 28.3688C22.5835 28.2642 22.6508 28.3312 22.7265 28.5153C22.8022 28.6995 22.84 28.8126 23.1259 29.5619L23.4413 30.4326C23.5817 30.7861 23.7037 31.1466 23.8071 31.5126C23.866 31.7428 23.8071 31.8014 23.5969 31.8767C23.538 31.8767 23.496 31.927 23.5128 31.973C23.5296 32.0191 23.5843 32.04 23.6684 32.0065L24.2949 31.7553C24.4295 31.7093 24.7616 31.613 25.0854 31.4958C25.1737 31.4623 25.2031 31.4163 25.1863 31.3702C25.1695 31.3242 25.1064 31.3242 25.0518 31.3409C24.77 31.4414 24.6313 31.4581 24.5346 31.2656C24.4379 31.073 24.2907 30.667 24.1141 30.1898L23.8029 29.3023C23.5296 28.553 23.4707 28.4149 23.4245 28.2558C23.3656 28.0298 23.4245 27.9544 23.6431 27.8707C23.6894 27.8707 23.7441 27.8205 23.7188 27.7535C23.6936 27.6865 23.6516 27.7074 23.5633 27.7535L22.9535 27.9879C22.8064 28.0423 22.4868 28.1428 22.2934 28.214C22.1925 28.2474 22.1546 28.2935 22.1714 28.3312C22.1883 28.3688 22.2597 28.3856 22.306 28.3688Z" fill="#261F1F"/>
<path fill-rule="evenodd" clip-rule="evenodd" d="M24.8079 27.4102C25.0674 27.3293 25.3477 27.4459 25.4723 27.6865L27.5452 30.6502C27.6378 30.7842 27.7092 30.847 27.7681 30.8344C27.827 30.8219 27.8732 30.7381 27.9195 30.5288L28.6385 27.1214C28.7268 26.7028 28.7983 26.5605 29.059 26.506C29.1347 26.506 29.1641 26.46 29.1557 26.414C29.1473 26.3679 29.0884 26.347 29.0001 26.3679C28.9118 26.3888 28.7142 26.4474 28.5166 26.4893C28.3189 26.5312 28.2222 26.5312 27.9573 26.5898C27.8396 26.6149 27.7849 26.6526 27.8059 26.707C27.827 26.7614 27.869 26.7572 27.9321 26.7446C28.0961 26.7112 28.1886 26.7446 28.2012 26.7907C28.2119 26.853 28.2119 26.9167 28.2012 26.9791L27.7261 29.7209L26.3385 27.6279C26.2536 27.5155 26.1856 27.3914 26.1366 27.2595C26.1114 27.1423 26.2544 27.1172 26.3427 27.0921C26.431 27.067 26.4394 27.0502 26.431 27C26.4226 26.9498 26.3469 26.9372 26.267 26.9581C26.0021 27.0126 25.7582 27.0879 25.6236 27.113C25.4891 27.1381 25.1401 27.1967 24.8583 27.2553C24.7658 27.2553 24.6986 27.3181 24.7112 27.3684C24.7238 27.4186 24.7616 27.4312 24.8163 27.4186" fill="#261F1F"/>
<path fill-rule="evenodd" clip-rule="evenodd" d="M30.2742 26.3972C30.5727 26.3763 30.6947 26.4391 30.6947 26.6609C30.6947 26.8828 30.6947 26.9707 30.7704 27.7702L30.8292 28.7037C30.8292 28.9758 30.8545 29.2395 30.8671 29.453C30.9049 30.0474 30.8671 30.106 30.5685 30.1228C30.5055 30.1228 30.4634 30.1521 30.4676 30.2023C30.4718 30.2526 30.5097 30.2777 30.598 30.2735L31.2749 30.2149C31.8426 30.1814 32.3682 30.173 32.8896 30.1437C32.9847 30.144 33.0638 30.0708 33.0704 29.9763C33.0914 29.7803 33.0998 29.5831 33.0956 29.386C33.0956 29.3107 33.0956 29.2563 33.02 29.2688C32.9443 29.2814 32.9485 29.3065 32.9401 29.3735C32.9401 29.587 32.8644 29.6833 32.7424 29.7544C32.5246 29.816 32.3002 29.8512 32.0739 29.8591C31.687 29.8842 31.6534 29.8591 31.6155 29.5116C31.6155 29.3567 31.5777 28.8921 31.5356 28.2977C31.5355 28.2807 31.5482 28.2663 31.5651 28.2642L32.2967 28.2349C32.5448 28.2349 32.6079 28.4191 32.6205 28.5823C32.6193 28.6027 32.6268 28.6226 32.6413 28.637C32.6558 28.6514 32.6758 28.6589 32.6962 28.6577C32.7635 28.6577 32.7677 28.5823 32.7635 28.5237C32.7635 28.2391 32.7845 27.854 32.7635 27.7828C32.7647 27.7647 32.758 27.7469 32.7451 27.7341C32.7322 27.7212 32.7144 27.7146 32.6962 27.7158C32.6625 27.7158 32.6373 27.7702 32.57 27.8247C32.433 27.911 32.2739 27.9561 32.1117 27.9544C31.8847 27.9544 31.6239 27.9544 31.5441 27.9837C31.4642 28.013 31.502 27.9837 31.4978 27.9502L31.4095 26.5353V26.506C32.4439 26.4391 32.4859 26.4642 32.549 26.8116C32.549 26.8535 32.549 26.9079 32.6247 26.9037C32.7004 26.8995 32.7046 26.866 32.7046 26.8158C32.6869 26.5859 32.6869 26.355 32.7046 26.1251C32.7046 26.0833 32.7046 26.0498 32.6415 26.0498C32.5408 26.0905 32.4345 26.1159 32.3262 26.1251L30.989 26.2088C30.8418 26.2088 30.5055 26.2088 30.2153 26.2465C30.1144 26.2465 30.0724 26.28 30.0766 26.3302C30.0808 26.3805 30.1186 26.4014 30.2027 26.3972" fill="#261F1F"/>
<path d="M34.3193 30.1395C34.5295 30.1646 34.8659 30.173 34.9752 30.1814C35.0845 30.1898 35.4462 30.24 35.7573 30.2693C35.8498 30.2693 35.8877 30.2442 35.8919 30.2023C35.8961 30.1605 35.854 30.1312 35.812 30.127C35.3915 30.0851 35.3495 29.9763 35.3915 29.4195L35.4672 28.5823L35.9297 28.6367C35.9644 28.6386 35.9958 28.6574 36.0138 28.687C36.1904 28.9381 36.3208 29.2019 36.4637 29.4405C36.8338 30.0558 37.1197 30.3823 37.7252 30.4367L38.234 30.4828C38.3223 30.4828 38.3643 30.4828 38.3727 30.4158C38.3812 30.3488 38.3349 30.3405 38.2844 30.3363C37.864 30.2986 37.515 30.0181 36.5773 28.4484C37.0138 28.2365 37.3129 27.819 37.372 27.3391C37.4393 26.594 36.7749 26.3093 36.0853 26.2423C35.9255 26.2423 35.5176 26.213 35.3368 26.1963L34.6094 26.1126C34.5043 26.1126 34.4622 26.1126 34.4622 26.1712C34.4622 26.2298 34.4875 26.2507 34.5673 26.2591C34.9878 26.2967 34.9878 26.3846 34.9416 26.8577L34.7061 29.3693C34.6599 29.8842 34.6136 30.0098 34.3109 29.9805C34.2436 29.9805 34.1931 29.9805 34.1889 30.0391C34.1847 30.0977 34.2268 30.1228 34.3151 30.1312L34.3193 30.1395ZM35.6522 26.5772C35.6522 26.5437 35.6522 26.5102 35.9634 26.5353C36.194 26.5684 36.4006 26.6954 36.5337 26.8858C36.6668 27.0763 36.7146 27.3132 36.6656 27.54C36.6235 28.0172 36.4049 28.3772 35.9255 28.3312C35.627 28.306 35.505 28.2558 35.505 28.1637L35.6522 26.5772Z" fill="#261F1F"/>
<path fill-rule="evenodd" clip-rule="evenodd" d="M39.6006 30.9223C39.9211 31.0303 40.2718 31.0056 40.5739 30.8537C40.8759 30.7018 41.104 30.4354 41.2068 30.1144C41.5012 28.9088 39.9832 28.3521 40.1682 27.6028C40.2058 27.4543 40.3059 27.3292 40.4428 27.2595C40.5796 27.1897 40.7401 27.1821 40.883 27.2386C41.2308 27.2965 41.4693 27.6192 41.4213 27.967C41.4213 28.0214 41.4213 28.0884 41.4759 28.1051C41.5306 28.1219 41.5726 28.0758 41.6021 27.946C41.703 27.5274 41.7492 27.3977 41.7661 27.3349C41.7748 27.2949 41.7559 27.254 41.7198 27.2344C41.5024 27.1108 41.2669 27.0218 41.0218 26.9707C40.2859 26.7949 39.6889 27.0837 39.5501 27.6781C39.2642 28.8419 40.7653 29.3526 40.5424 30.2526C40.4975 30.4189 40.3845 30.5588 40.2311 30.6383C40.0777 30.7179 39.8978 30.7298 39.7351 30.6712C39.5259 30.6313 39.3432 30.5055 39.232 30.3246C39.1207 30.1437 39.0912 29.9246 39.1506 29.7209C39.1506 29.6665 39.1506 29.6079 39.1044 29.5912C39.0581 29.5744 38.9993 29.633 38.9782 29.7209L38.7764 30.4409C38.7302 30.5958 39.075 30.8135 39.6174 30.9391" fill="#261F1F"/>
<path fill-rule="evenodd" clip-rule="evenodd" d="M42.1066 31.5628L42.75 31.7763C42.8803 31.8265 43.1957 31.9647 43.5195 32.086C43.6078 32.1195 43.6624 32.086 43.6793 32.0526C43.6961 32.0191 43.6498 31.9688 43.5952 31.9479C43.3176 31.8433 43.1747 31.7595 43.2504 31.5544C43.3261 31.3493 43.4564 30.9433 43.6372 30.466L43.961 29.5953C44.2427 28.846 44.289 28.7037 44.3815 28.5572C44.4824 28.3437 44.5707 28.3144 44.802 28.4023C44.8524 28.4023 44.9155 28.4274 44.9407 28.3605C44.9659 28.2935 44.9155 28.2851 44.8272 28.2516C44.6338 28.1805 44.3394 28.0842 44.2091 28.0381C44.0787 27.9921 43.7549 27.8498 43.5615 27.7786C43.4606 27.7451 43.4059 27.7535 43.3891 27.7786C43.3723 27.8037 43.4228 27.8749 43.469 27.8916C43.7507 27.9963 43.7507 28.0884 43.6961 28.2767C43.6414 28.4651 43.591 28.5823 43.3176 29.3316L42.9897 30.2023C42.8676 30.5622 42.7272 30.9157 42.5692 31.2614C42.4641 31.4749 42.38 31.4791 42.1739 31.4037C42.1151 31.3786 42.0604 31.3786 42.0436 31.4037C42.0268 31.4288 42.0436 31.4958 42.1403 31.5293" fill="#261F1F"/>
<path d="M44.6926 32.4042C44.6674 32.446 44.6926 32.4921 44.7725 32.5381C44.9575 32.6428 45.2561 32.7893 45.3696 32.8521C45.5967 32.9819 45.9877 33.2707 46.3283 33.4591C47.4973 34.1205 48.7713 34.0284 49.4693 32.7935C50.1674 31.5586 49.4693 30.5456 48.0817 29.767C47.8 29.6079 47.4973 29.4572 47.3543 29.3777C47.2113 29.2981 46.9338 29.1181 46.6941 28.9842C46.6016 28.9298 46.5512 28.9381 46.5259 28.9842C46.5007 29.0302 46.526 29.0637 46.5932 29.1014C46.8497 29.2437 46.9212 29.3651 46.8119 29.5577C46.7026 29.7502 46.6647 29.8381 46.2737 30.5372L45.8322 31.3409C45.1846 32.5005 45.1089 32.5423 44.9029 32.4293C44.7935 32.3707 44.7347 32.354 44.7095 32.4042M46.2316 32.1154L47.4384 29.9805C47.5225 29.834 47.5561 29.8047 47.8589 29.9805C48.8807 30.5456 49.2801 31.5251 48.7251 32.5423C48.17 33.5595 47.4384 33.7354 46.4545 33.187C45.8532 32.8521 45.8742 32.7181 46.2148 32.1112" fill="#261F1F"/>
<path d="M48.969 34.7944C48.9353 34.7693 48.8891 34.7484 48.8596 34.7944C48.8302 34.8405 48.8344 34.8781 48.9059 34.9367C49.1203 35.1126 49.3516 35.2884 49.4021 35.3302C49.5282 35.4349 49.6964 35.594 49.8226 35.7028C49.8772 35.7488 49.9193 35.7656 49.9613 35.7028C50.0034 35.64 49.9613 35.6274 49.8814 35.5479C49.8015 35.4684 49.7553 35.3679 49.8057 35.3051C49.8832 35.2292 49.971 35.1644 50.0664 35.1126L50.5836 34.8405C50.5836 34.8405 50.6215 34.8405 50.6425 34.8405L51.6306 35.6777C51.6306 35.6777 51.6601 35.7112 51.6306 35.7237L51.3279 36.6405C51.3279 36.6907 51.0798 36.5358 51.0546 36.5233C51.0293 36.5107 50.9705 36.4814 50.9368 36.5233C50.9032 36.5651 50.9368 36.6363 51.042 36.72C51.1471 36.8037 51.3868 36.9837 51.5087 37.08C51.6306 37.1763 51.782 37.3395 51.8871 37.4274C52.0595 37.5698 52.1226 37.574 52.152 37.5405C52.1815 37.507 52.152 37.4651 52.1184 37.4233C51.9208 37.26 51.9965 36.9419 52.089 36.6447C52.3371 35.8074 53.0603 33.614 53.1444 33.2958C53.1864 33.1451 53.1864 33.0907 53.1444 33.0488C53.1023 33.007 53.0224 33.0488 52.8585 33.1158L49.6964 34.7902C49.3474 34.9744 49.1918 34.9744 48.9395 34.7651L48.969 34.7944ZM52.3034 33.8484L51.7652 35.3595L50.899 34.6354L52.3034 33.8484Z" fill="#261F1F"/>
<path d="M52.9215 38.1851C52.8416 38.0847 52.7954 38.0512 52.7491 38.0888C52.7029 38.1265 52.7197 38.1684 52.7786 38.2395C52.9131 38.4028 53.136 38.6581 53.1991 38.7502C53.3672 38.9512 53.6195 39.3614 53.876 39.6628C54.717 40.6967 55.949 41.0735 57.0465 40.1693C58.144 39.2651 57.8875 38.0763 56.8531 36.8498C56.647 36.6028 56.4326 36.3516 56.3148 36.226C56.1971 36.1005 56.0205 35.8326 55.8439 35.6233C55.7766 35.5395 55.7262 35.5228 55.6883 35.5563C55.6505 35.5898 55.6547 35.6274 55.7136 35.6944C55.8986 35.9163 55.9196 36.0544 55.7472 36.1967C55.5748 36.3391 55.5075 36.4019 54.8852 36.9126L54.1662 37.5028C53.1402 38.34 53.0519 38.34 52.9047 38.1851M54.2587 38.3651L56.1593 36.8121C56.2896 36.7033 56.3317 36.6865 56.5798 36.9712C57.324 37.867 57.3408 38.926 56.4536 39.6753C55.5664 40.4247 54.8179 40.32 54.1073 39.4577C53.6868 38.9302 53.7331 38.8088 54.2713 38.3651" fill="#261F1F"/>
<path fill-rule="evenodd" clip-rule="evenodd" d="M58.5686 47.4279C58.6228 47.4901 58.7061 47.5188 58.7873 47.5033C59.0281 47.4617 59.2656 47.4029 59.4979 47.3274C59.5484 47.3023 59.5778 47.2647 59.5568 47.2186C59.5358 47.1726 59.5105 47.1642 59.4054 47.1767C58.9513 47.2395 58.6864 47.0846 58.3836 46.3898C58.001 45.5526 58.2869 44.6274 59.4264 44.1293C60.3515 43.7609 61.1378 43.8907 61.5289 44.8158C61.7854 45.3893 61.819 46.0716 61.306 46.2935C61.2219 46.3312 61.1883 46.3772 61.2093 46.4274C61.2303 46.4777 61.2892 46.4777 61.3733 46.4274C61.4574 46.3772 61.7433 46.2809 61.9115 46.2181C62.0797 46.1553 62.1512 46.1428 62.189 46.1219C62.2269 46.1009 62.2479 46.0674 62.2269 45.9921C62.1272 45.5651 61.998 45.1455 61.84 44.7363C61.3312 43.5851 60.2254 42.8777 59.0396 43.3967C57.6436 43.9828 57.5174 45.3474 58.0557 46.5656C58.178 46.8678 58.3453 47.15 58.5518 47.4028" fill="#261F1F"/>
<path d="M58.9807 48.1646C58.9807 48.1228 58.9471 48.0767 58.8924 48.0977C58.8378 48.1186 58.8251 48.1521 58.8462 48.24C58.9134 48.5079 58.9975 48.7884 59.0144 48.847C59.0522 49.006 59.0942 49.2363 59.1363 49.3995C59.1363 49.4707 59.1741 49.5084 59.2372 49.4916C59.3003 49.4749 59.2961 49.4414 59.2666 49.3158C59.2372 49.1902 59.2666 49.0981 59.3465 49.0814C59.4566 49.0639 59.5687 49.0639 59.6787 49.0814L60.2548 49.1651C60.2548 49.1651 60.2884 49.1651 60.2926 49.207L60.5954 50.4628C60.5954 50.4879 60.5954 50.5046 60.5954 50.5172L59.7965 51.0698C59.746 51.0949 59.6577 50.8395 59.6451 50.8144C59.6325 50.7893 59.5988 50.7307 59.5526 50.7433C59.5063 50.7558 59.4853 50.8312 59.5189 50.9609C59.5526 51.0907 59.6451 51.3795 59.6829 51.526C59.7208 51.6726 59.746 51.8944 59.7796 52.0242C59.8343 52.246 59.8806 52.2837 59.9226 52.2753C59.9647 52.267 59.9815 52.2251 59.9689 52.1623C59.9058 51.9153 60.1539 51.7019 60.3893 51.5177C61.0831 50.9902 62.9711 49.6465 63.2234 49.454C63.3454 49.3577 63.379 49.3158 63.3706 49.2572C63.3622 49.1986 63.2865 49.1693 63.1015 49.14L59.561 48.6293C59.1657 48.5749 59.0396 48.4786 58.9597 48.1646H58.9807ZM62.2311 49.3953H62.21L60.8771 50.2953L60.6122 49.2028L62.2311 49.3953Z" fill="#261F1F"/>
<path fill-rule="evenodd" clip-rule="evenodd" d="M63.2613 52.2921C63.2024 52.2921 63.1477 52.2921 63.1519 52.38C63.1584 52.4252 63.1986 52.458 63.2444 52.4553C63.4379 52.4553 63.564 52.5935 63.6145 53.0079L63.7028 53.7698L61.0663 53.9958C60.2254 54.067 60.1539 54.0209 60.1286 53.7279C60.1286 53.6609 60.1034 53.6149 60.0488 53.6274C59.9941 53.64 59.9731 53.6693 59.9815 53.7614C59.9815 53.9707 60.0446 54.3098 60.053 54.4312C60.0614 54.5526 60.0824 54.9167 60.1118 55.2684C60.1118 55.3437 60.1497 55.4023 60.2001 55.3856C60.2506 55.3688 60.2632 55.3312 60.2632 55.2767C60.2254 54.8581 60.2632 54.7912 61.1588 54.7158L63.7574 54.494L63.7995 55.1386C63.8331 55.6116 63.7364 55.7414 63.5178 55.7707C63.421 55.7916 63.3916 55.8209 63.3958 55.867C63.4 55.913 63.4379 55.9298 63.5178 55.9298L64.1275 55.9005C64.2368 55.9005 64.2704 55.867 64.262 55.8167C64.2109 55.6535 64.1784 55.485 64.1653 55.3144L63.9593 52.9284C63.9526 52.7636 63.9696 52.5986 64.0097 52.4386C64.0097 52.3884 63.9761 52.38 63.8794 52.3591C63.6755 52.3204 63.4687 52.2994 63.2613 52.2963" fill="#261F1F"/>
<path d="M64.796 60.1116C64.7708 60.074 64.3461 59.3205 64.1485 59.0191C64.0469 57.9621 63.1664 57.1482 62.1001 57.1258C61.0337 57.1033 60.1194 57.8794 59.9731 58.9312C59.8885 59.5201 60.0561 60.1173 60.435 60.5774C60.814 61.0374 61.3695 61.318 61.9662 61.3507C63.1687 61.4512 64.0055 60.706 64.1443 59.4167C64.2578 59.8353 64.405 60.3795 64.4008 60.3921C64.4107 60.4228 64.4338 60.4476 64.4638 60.4597C64.4938 60.4719 64.5278 60.4701 64.5564 60.4549C64.6309 60.4183 64.7025 60.3764 64.7708 60.3293C64.8171 60.3 64.8591 60.2247 64.796 60.1116ZM63.8668 59.1656C63.7869 60.0028 63.0258 60.6349 61.8358 60.5344C60.3305 60.4047 60.2338 59.5465 60.2674 59.1865C60.3515 58.1819 61.264 57.6502 62.3698 57.7507C63.6649 57.8595 63.934 58.5879 63.8836 59.1656" fill="#261F1F"/>
<path fill-rule="evenodd" clip-rule="evenodd" d="M63.3622 63.2093C63.2655 63.5777 63.1856 63.5567 62.5843 63.4019L60.5659 62.8828C59.725 62.6693 59.6367 62.6233 59.725 62.3009C59.725 62.2381 59.725 62.1879 59.6829 62.1795C59.6409 62.1712 59.5946 62.1795 59.5694 62.2926C59.5189 62.4977 59.4475 62.82 59.418 62.9372C59.3087 63.3558 59.1868 63.6907 58.9975 64.44C58.9261 64.7037 58.9429 64.7623 59.0564 64.8293C59.2664 64.9273 59.4827 65.0112 59.704 65.0805C59.788 65.0805 59.8259 65.0805 59.8385 65.0428C59.8511 65.0051 59.7965 64.9549 59.7544 64.934C59.4138 64.7791 59.3045 64.6409 59.4433 64.0967C59.6157 63.4437 59.6871 63.406 60.3936 63.586L62.4119 64.1051C63.0678 64.2767 63.0762 64.3228 62.9879 64.6577C62.9669 64.7414 62.9879 64.7833 63.0342 64.7958C63.0804 64.8084 63.1099 64.7958 63.1351 64.6828C63.1898 64.4735 63.2739 64.0967 63.3033 63.9795C63.3327 63.8623 63.4463 63.5191 63.5051 63.2679C63.5346 63.1758 63.5051 63.1256 63.4715 63.113C63.4379 63.1005 63.3916 63.113 63.3706 63.2135" fill="#261F1F"/>
<path fill-rule="evenodd" clip-rule="evenodd" d="M62.0881 67.3953C61.9746 67.6674 61.8821 67.6716 61.6928 67.6088C61.5036 67.546 61.3943 67.4958 60.6458 67.1902L59.8049 66.8428C59.4483 66.7086 59.0988 66.5563 58.7579 66.3865C58.5476 66.2819 58.5434 66.1981 58.6275 65.993C58.6527 65.9344 58.6569 65.8842 58.6275 65.8633C58.5981 65.8423 58.5308 65.8632 58.4972 65.9553C58.4215 66.1563 58.3079 66.4744 58.2617 66.5874C58.2154 66.7005 58.0641 67.006 57.9295 67.3451C57.8959 67.4288 57.9295 67.4833 57.9589 67.5C57.9884 67.5167 58.0472 67.5 58.0641 67.4246C58.1776 67.1484 58.2659 67.006 58.4845 67.094C58.7032 67.1819 59.09 67.3158 59.5652 67.5126L60.4272 67.8642C61.1714 68.1656 61.3102 68.2116 61.4574 68.2828C61.6676 68.3916 61.6928 68.4795 61.6045 68.7014C61.6045 68.7474 61.5709 68.8102 61.6382 68.8395C61.7055 68.8688 61.7181 68.8395 61.7517 68.7307C61.8274 68.5381 61.9367 68.2493 61.983 68.1237C62.0292 67.9981 62.1806 67.6758 62.2605 67.4874C62.3026 67.387 62.2899 67.3284 62.2605 67.3158C62.2311 67.3032 62.1638 67.3451 62.147 67.3912" fill="#261F1F"/>
<path fill-rule="evenodd" clip-rule="evenodd" d="M59.2877 69.4591C57.9884 68.6763 56.8026 69.3795 56.1298 70.5307C55.9556 70.8074 55.8225 71.1077 55.7346 71.4223C55.7172 71.5037 55.7444 71.5881 55.8061 71.6442C55.9788 71.8146 56.1659 71.9701 56.3653 72.1088C56.4116 72.1381 56.462 72.1423 56.4872 72.1088C56.5125 72.0754 56.4872 72.0335 56.4326 71.9623C56.1172 71.6274 56.0878 71.326 56.4704 70.6688C56.9456 69.8651 57.8496 69.5595 58.9219 70.1833C59.7628 70.7149 60.1244 71.4391 59.6156 72.2972C59.2961 72.8372 58.7747 73.2684 58.2785 72.9837C58.1986 72.9377 58.1397 72.9377 58.1145 72.9837C58.0893 73.0298 58.1145 73.08 58.1902 73.1302C58.2659 73.1805 58.5308 73.3437 58.6822 73.44C58.8335 73.5363 58.8798 73.5865 58.9176 73.6074C58.9555 73.6284 59.0017 73.6074 59.048 73.5614C59.3368 73.2312 59.6023 72.8815 59.8427 72.5149C60.4818 71.4223 60.4062 70.1163 59.2877 69.4674" fill="#261F1F"/>
<path d="M55.3772 72.9335C55.1922 72.5819 55.1921 72.427 55.4024 72.1758C55.4318 72.1465 55.4529 72.0963 55.4024 72.067C55.3519 72.0377 55.3225 72.0419 55.2594 72.113C55.0828 72.3265 54.9062 72.5567 54.8642 72.6028C54.7591 72.7284 54.5951 72.8958 54.4857 73.0214C54.4395 73.0758 54.4227 73.1177 54.4857 73.1554C54.5488 73.193 54.5614 73.1763 54.6455 73.08C54.7296 72.9837 54.8263 72.9544 54.8852 73.0047C54.9629 73.0831 55.0295 73.1718 55.0828 73.2684L55.3519 73.7833C55.3519 73.7833 55.3519 73.8209 55.3519 73.8377L54.511 74.8214C54.5015 74.8378 54.4836 74.8475 54.4647 74.8465L53.5438 74.5367C53.4976 74.5116 53.649 74.2898 53.6658 74.2647C53.6826 74.2395 53.7078 74.1809 53.6658 74.1474C53.6237 74.114 53.5523 74.1474 53.4682 74.2479C53.3841 74.3484 53.2033 74.5953 53.1023 74.7126C53.0014 74.8298 52.8416 74.9847 52.7575 75.0893C52.6104 75.2651 52.6062 75.3237 52.6356 75.353C52.665 75.3823 52.7113 75.353 52.7533 75.3195C52.9215 75.127 53.2369 75.1981 53.5396 75.2944C54.3806 75.5456 56.584 76.274 56.9035 76.3619C57.0507 76.4037 57.1054 76.4037 57.1474 76.3619C57.1895 76.32 57.1474 76.2405 57.0843 76.0772L55.3772 72.9335ZM56.3233 75.5288L54.8011 74.9847L55.5369 74.1265L56.3275 75.5247H56.3485L56.3233 75.5288Z" fill="#261F1F"/>
<path d="M19.4215 79.3298L18.7066 78.9112C18.5763 78.8358 18.2862 78.6433 18.0591 78.4926C17.9666 78.4381 17.9161 78.4381 17.8909 78.4926C17.8657 78.547 17.8909 78.5721 17.9582 78.6181C18.2063 78.7646 18.2778 78.886 18.1642 79.0744L17.5966 80.0414L17.1214 80.8367C16.4402 81.9712 16.3645 82.0172 16.1627 81.8958C16.0534 81.833 15.9945 81.8163 15.9651 81.8623C15.9356 81.9084 15.9651 81.9502 16.045 82.0005C16.2258 82.1093 16.5201 82.2642 16.6294 82.3312C16.8565 82.4651 17.2392 82.7498 17.5755 82.9674C18.7277 83.654 20.0017 83.5953 20.725 82.3772C21.4482 81.1591 20.8007 80.1377 19.4215 79.3172M19.9891 82.1177C19.3836 83.1349 18.673 83.2688 17.7101 82.6995C17.1172 82.3479 17.1382 82.214 17.4956 81.6153L18.7571 79.5223C18.8454 79.3758 18.879 79.3465 19.1776 79.5223C20.1741 80.1126 20.5526 81.1046 19.9681 82.1093" fill="#261F1F"/>
<path fill-rule="evenodd" clip-rule="evenodd" d="M25.0938 81.9963L23.8324 81.5358C23.6936 81.4856 23.3824 81.3558 23.1091 81.2553C23.0166 81.2219 22.9662 81.2344 22.9493 81.2805C22.9325 81.3265 22.9493 81.3558 23.0376 81.3893C23.3194 81.4898 23.3993 81.5986 23.3236 81.8079C23.2479 82.0172 23.2227 82.1009 22.9451 82.8502L22.6256 83.7209C22.5331 83.9847 22.4321 84.2274 22.3607 84.4242C22.1546 84.9809 22.0958 85.0228 21.814 84.9181C21.7552 84.8972 21.7089 84.9181 21.6879 84.9474C21.6669 84.9767 21.6879 85.0353 21.7846 85.0647C21.9822 85.14 22.306 85.2405 22.4237 85.2865C22.9578 85.4833 23.4413 85.7051 23.9249 85.8684C24.0133 85.9055 24.1155 85.8691 24.1603 85.7847C24.2587 85.614 24.3471 85.4379 24.4252 85.2572C24.4505 85.1902 24.4589 85.1358 24.4 85.1191C24.3411 85.1023 24.3201 85.1191 24.2865 85.1819C24.1772 85.3702 24.0931 85.4372 23.9501 85.454C23.725 85.425 23.5045 85.3673 23.2941 85.2823C22.9325 85.1484 22.8947 85.1191 23.0166 84.78L23.4371 83.6372C23.4419 83.6318 23.4488 83.6287 23.456 83.6287C23.4633 83.6287 23.4702 83.6318 23.4749 83.6372C23.5128 83.6372 24.0636 83.8716 24.1561 83.9009C24.3874 83.9888 24.3622 84.1981 24.3075 84.3488C24.2979 84.3675 24.297 84.3894 24.3051 84.4088C24.3132 84.4282 24.3295 84.443 24.3496 84.4493C24.4126 84.4744 24.4463 84.4074 24.4631 84.3572C24.564 84.0893 24.7574 83.7544 24.7827 83.6874C24.7909 83.671 24.7914 83.6517 24.7841 83.6348C24.7769 83.6179 24.7625 83.605 24.7448 83.5995C24.7112 83.5995 24.6691 83.6247 24.585 83.6456C24.4262 83.668 24.2643 83.6448 24.1183 83.5786C23.9038 83.5033 23.66 83.4028 23.5843 83.3777C23.5086 83.3526 23.5506 83.3777 23.5548 83.3316L24.0468 82.0005C24.0468 82.0005 24.0468 81.9753 24.0804 82.0005C25.0518 82.3605 25.077 82.3981 24.9971 82.7372C24.9971 82.7791 24.9677 82.8335 25.0265 82.8544C25.0482 82.8639 25.0728 82.8638 25.0944 82.8542C25.116 82.8447 25.1326 82.8265 25.1401 82.8042C25.2218 82.5896 25.3217 82.3824 25.4386 82.1847C25.4386 82.1428 25.4386 82.1051 25.4092 82.0926C25.3008 82.0846 25.1937 82.065 25.0896 82.034" fill="#261F1F"/>
<path fill-rule="evenodd" clip-rule="evenodd" d="M32.6037 83.4321C32.1839 83.3056 31.7552 83.2105 31.3212 83.1474C30.0597 83.0261 28.895 83.6372 28.7731 84.9223C28.6049 86.4167 29.736 87.1954 31.0647 87.3251C31.3894 87.3746 31.7197 87.3746 32.0444 87.3251C32.1257 87.308 32.1915 87.2489 32.2168 87.1702C32.3002 86.9431 32.3635 86.7092 32.4061 86.4712C32.4061 86.4167 32.4061 86.3707 32.3472 86.3665C32.2883 86.3623 32.2715 86.3665 32.2337 86.4753C32.0655 86.894 31.8132 87.053 31.0437 86.9777C30.1102 86.8898 29.4542 86.1991 29.5762 84.9642C29.7107 83.9847 30.2027 83.3651 31.2161 83.4614C31.8384 83.52 32.4523 83.8256 32.3976 84.3823C32.3976 84.4744 32.3976 84.5247 32.4691 84.5288C32.5406 84.533 32.5532 84.487 32.57 84.3949C32.5869 84.3028 32.6205 84.0056 32.6457 83.8298C32.671 83.654 32.6962 83.5828 32.7004 83.5409C32.7046 83.4991 32.7004 83.4614 32.6037 83.4488" fill="#261F1F"/>
<path fill-rule="evenodd" clip-rule="evenodd" d="M39.1044 86.7726C38.7974 86.8061 38.6839 86.7726 38.6208 86.5465C38.5578 86.3205 38.5199 85.9019 38.4652 85.4247L38.3643 84.5037C38.2634 83.7209 38.2634 83.566 38.2634 83.3944C38.2634 83.2228 38.3181 83.0972 38.5578 83.0679C38.6419 83.0679 38.6755 83.0302 38.6713 82.9884C38.6671 82.9465 38.6208 82.913 38.5241 82.9256C38.3139 82.9465 37.9859 82.9967 37.8555 83.0135L37.0819 83.0805C36.9936 83.0805 36.9431 83.1181 36.9515 83.1684C36.9599 83.2186 37.002 83.2395 37.0776 83.2354C37.3383 83.2061 37.4981 83.2144 37.5234 83.474C37.5486 83.6414 37.5696 83.7837 37.6579 84.5791L37.6831 84.8135C37.6888 84.8209 37.6888 84.8312 37.6831 84.8386L35.6732 85.0479H35.648L35.6228 84.8219C35.5345 84.0265 35.5219 83.8884 35.5176 83.7167C35.5134 83.5451 35.5681 83.4195 35.7994 83.3902C35.8919 83.3902 35.9255 83.3484 35.9213 83.2981C35.9171 83.2479 35.8709 83.2312 35.7699 83.2395C35.5639 83.2605 35.2359 83.3191 35.1098 83.3316C34.9836 83.3442 34.6178 83.3651 34.3319 83.3944C34.2352 83.3944 34.1973 83.4405 34.2015 83.4865C34.2057 83.5326 34.252 83.5619 34.3319 83.5535C34.6094 83.5242 34.7524 83.5744 34.7524 83.7879C34.7524 84.0014 34.7944 84.0977 34.8827 84.9014L34.9878 85.8223C35.0376 86.1917 35.0685 86.5633 35.0803 86.9358C35.0803 87.1702 35.0425 87.2288 34.7944 87.2581C34.7313 87.2581 34.6851 87.2874 34.6893 87.3419C34.6935 87.3963 34.7398 87.413 34.8323 87.4047L35.505 87.3167C35.6522 87.3167 35.9886 87.2749 36.346 87.2372C36.4301 87.2372 36.4764 87.1954 36.4721 87.1451C36.4679 87.0949 36.4133 87.0823 36.3544 87.0865C36.0517 87.12 35.9339 87.1116 35.8667 86.8647C35.7994 86.6177 35.7741 86.2242 35.7237 85.747L35.6858 85.4288V85.4037L37.7 85.186L37.7378 85.5126C37.7883 85.9898 37.8345 86.4084 37.8303 86.6302C37.8261 86.8521 37.8051 86.9233 37.5444 86.9526C37.4813 86.9526 37.4351 86.9777 37.4393 87.0363C37.4435 87.0949 37.4897 87.1074 37.5906 87.0991C37.7967 87.074 38.1289 87.0237 38.255 87.0028C38.3812 86.9819 38.7344 86.9693 39.096 86.9316C39.1885 86.9316 39.2263 86.8814 39.2221 86.8395C39.2179 86.7977 39.1633 86.7767 39.1086 86.7809" fill="#261F1F"/>
<path fill-rule="evenodd" clip-rule="evenodd" d="M42.9308 85.7344C42.6449 85.8181 42.5103 85.8265 42.4178 85.6256C42.3253 85.4246 42.216 85.0144 42.073 84.5247L41.8081 83.6372C41.581 82.8712 41.5348 82.7288 41.4969 82.5698C41.4549 82.3395 41.4969 82.2684 41.7366 82.1972C41.7829 82.1972 41.8417 82.1553 41.8207 82.0842C41.7997 82.013 41.7576 82.0381 41.6693 82.0633C41.4675 82.1219 41.1732 82.2223 41.0428 82.26C40.9125 82.2977 40.5677 82.3856 40.3742 82.4442C40.2691 82.4735 40.2313 82.5154 40.2439 82.553C40.2565 82.5907 40.328 82.6116 40.3742 82.5991C40.6602 82.5153 40.719 82.5991 40.7947 82.7707C40.8704 82.9423 40.8914 83.0721 41.1269 83.8381L41.3918 84.7256C41.5086 85.0874 41.6068 85.4548 41.6862 85.8265C41.7324 86.0567 41.6862 86.1112 41.4591 86.174C41.396 86.174 41.3498 86.22 41.3666 86.2702C41.3834 86.3205 41.4297 86.3372 41.5222 86.3121L42.1613 86.1028C42.2959 86.0609 42.6323 85.9856 42.9644 85.8851C43.0527 85.86 43.0822 85.8181 43.0696 85.7679C43.0569 85.7177 42.9939 85.7177 42.9392 85.7344" fill="#261F1F"/>
<path fill-rule="evenodd" clip-rule="evenodd" d="M47.3417 83.1977C47.3081 83.1223 47.2744 83.0972 47.2282 83.1181C47.1819 83.1391 47.1861 83.2102 47.1945 83.2479C47.2912 83.6121 47.2534 83.7837 46.7362 84.0223C46.1223 84.2986 46.0466 84.2735 45.7438 83.6037L44.8734 81.7158C44.5959 81.1046 44.6254 81.067 44.9449 80.9246C45.0206 80.8912 45.0416 80.8493 45.0206 80.8032C44.9996 80.7572 44.9575 80.7572 44.8692 80.8032C44.6758 80.8912 44.3268 81.067 44.2133 81.1172C44.0998 81.1674 43.7676 81.2972 43.5363 81.4102C43.4438 81.4437 43.4144 81.4898 43.4354 81.5316C43.4564 81.5735 43.4985 81.5819 43.5741 81.5316C43.9231 81.3726 43.961 81.4521 44.2175 82.0088L45.0837 83.8967C45.4411 84.6753 45.4663 84.78 45.1594 84.9181C45.1005 84.9432 45.0627 84.9809 45.0921 85.027C45.1215 85.073 45.1552 85.0814 45.2477 85.027C45.4411 84.9433 45.7396 84.7926 45.849 84.7381C46.2442 84.5623 46.5848 84.4451 47.287 84.1228C47.5393 84.0098 47.573 83.9637 47.5519 83.834C47.4979 83.6088 47.4276 83.3877 47.3417 83.1726" fill="#261F1F"/>
<path fill-rule="evenodd" clip-rule="evenodd" d="M51.2059 80.9037C51.1681 80.8451 51.1303 80.7991 51.0798 80.8409C51.0293 80.8828 51.042 80.9079 51.0798 80.9707C51.1549 81.1002 51.1549 81.2598 51.0798 81.3893C50.922 81.5492 50.7455 81.6897 50.5542 81.8079C50.2346 82.0172 50.1842 82.0298 49.9823 81.7326C49.8982 81.5986 49.6375 81.2135 49.3096 80.7153C49.3025 80.7107 49.2983 80.7028 49.2983 80.6944C49.2983 80.686 49.3025 80.6781 49.3096 80.6735L49.9277 80.2842C50.1337 80.1502 50.2893 80.2842 50.3818 80.4307C50.3914 80.4478 50.4077 80.4602 50.4268 80.4649C50.4459 80.4697 50.4661 80.4664 50.4827 80.4558C50.5416 80.4181 50.5079 80.3553 50.4827 80.3051C50.3229 80.0707 50.1673 79.7149 50.1253 79.6563C50.1174 79.6397 50.1027 79.6273 50.0849 79.6225C50.0671 79.6177 50.048 79.6208 50.0328 79.6312C50.0076 79.6312 50.0076 79.7065 49.9739 79.7902C49.9002 79.9316 49.786 80.0481 49.6459 80.1251L49.1666 80.4349C49.1414 80.4349 49.1287 80.4349 49.1119 80.4349L48.3551 79.2628C48.3551 79.2628 48.3551 79.2335 48.3551 79.2251C49.2213 78.6558 49.2675 78.66 49.4946 78.9279C49.524 78.9572 49.5534 79.0074 49.6081 78.9698C49.6283 78.9586 49.6426 78.9393 49.6475 78.9169C49.6523 78.8944 49.6472 78.871 49.6333 78.8526C49.5092 78.6585 49.3996 78.4557 49.3054 78.2456C49.2801 78.2079 49.2507 78.187 49.2128 78.2121C49.1456 78.2955 49.0679 78.3701 48.9816 78.434L47.8631 79.1665C47.7411 79.2502 47.4426 79.4219 47.2113 79.5851C47.1272 79.6395 47.1062 79.6856 47.1357 79.7274C47.1651 79.7693 47.2029 79.7693 47.2744 79.7274C47.5225 79.5642 47.6571 79.5642 47.779 79.7274C47.9009 79.8907 47.9556 79.9828 48.4013 80.6526L48.9185 81.4312C49.0699 81.6614 49.2128 81.8833 49.339 82.0633C49.6712 82.5572 49.6628 82.6284 49.4189 82.7916C49.3642 82.8251 49.339 82.867 49.3642 82.9088C49.3895 82.9507 49.4399 82.9549 49.5156 82.9088C49.6964 82.7916 49.9739 82.5907 50.0706 82.5237C50.5458 82.214 51.0041 81.9502 51.433 81.6865C51.517 81.6389 51.5499 81.5349 51.5087 81.4479C51.4285 81.2681 51.3372 81.0933 51.2354 80.9247" fill="#261F1F"/>
</svg>
